<?xml version="1.0" encoding="utf-8"?>
<!-- Generator: Adobe Illustrator 18.0.0, SVG Export Plug-In . SVG Version: 6.00 Build 0)  -->
<!DOCTYPE svg PUBLIC "-//W3C//DTD SVG 1.1//EN" "http://www.w3.org/Graphics/SVG/1.1/DTD/svg11.dtd">
<svg version="1.1" id="Layer_1" xmlns="http://www.w3.org/2000/svg" xmlns:xlink="http://www.w3.org/1999/xlink" x="0px" y="0px"
	 viewBox="0 0 170 170" enable-background="new 0 0 170 170" xml:space="preserve">
<circle fill="#FFFFFF" cx="85" cy="85" r="75"/>
<path fill="#407DF4" d="M97.3,59.3c-2.6,0-5.1,1-7.1,2.9c-3.9,3.9-3.9,10.2,0,14.1c2,2,4.5,2.9,7.1,2.9c2.6,0,5.1-1,7.1-2.9
	c3.9-3.9,3.9-10.2,0-14.1C102.4,60.3,99.9,59.3,97.3,59.3z"/>
<path fill="#407DF4" d="M52.5,134.3l17.9-17.9c0.1-0.1,0.2-0.2,0.2-0.3L92.8,94c4.5-0.4,8.6-1.5,12.2-3.3c5.5-2.7,9.9-6.8,12.8-11.5
	c2.9-4.7,4.5-9.9,4.5-15c0-2-0.3-4-0.8-6c-0.2-0.6-0.4-1.1-0.8-1.5c2.1-2.4,3.4-5.6,3.4-9.1c0-3.9-1.6-7.4-4.1-9.9
	c-0.4-0.4-0.8-0.7-1.2-1.1c-0.6-0.4-1.2-0.8-1.8-1.2c-2-1.2-4.4-1.8-6.9-1.8c-3.9,0-7.4,1.6-9.9,4.1c-1.8,1.8-3.1,4.1-3.7,6.6
	c-0.2,0-0.5-0.1-0.7-0.1c-1.5,0-3,0.3-4.3,0.9c-2.4,0.9-4.6,2.5-6.6,4.4c-3,2.9-5.7,6.6-7.7,11c-2,4.3-3.3,9.2-3.3,14.2
	c0,2.8,0.4,5.7,1.3,8.4l-20.6,20.6l0,0l-19.1,13.5c0.2,0.2,0.3,0.5,0.5,0.7c1.3,2,2.8,3.9,4.4,5.7L59.7,110c0.2-0.2,0.4-0.4,0.6-0.6
	l2.8,2.8l-17.1,17.1C48.1,131.1,50.3,132.8,52.5,134.3z M105.9,43.4c1.1-1.1,2.6-1.8,4.2-1.8c1.7,0,3.1,0.7,4.2,1.8
	c1.1,1.1,1.8,2.6,1.8,4.2c0,1.7-0.7,3.1-1.8,4.2c-1.1,1.1-2.6,1.8-4.2,1.8c-1.7,0-3.1-0.7-4.2-1.8c-1.1-1.1-1.8-2.6-1.8-4.2
	C104.2,46,104.8,44.5,105.9,43.4z M83.5,66.3c1.4-4.1,3.8-7.8,6.3-10.4c1.2-1.3,2.5-2.2,3.6-2.8c1.1-0.6,2-0.8,2.5-0.8
	c0.4,0,0.7-0.1,1.1-0.2c0.7,2.1,1.9,3.9,3.4,5.4c2.5,2.5,6,4.1,9.9,4.1c1.3,0,2.6-0.2,3.9-0.6c0.2,1,0.3,2,0.3,3.1
	c0,4.6-2,9.9-5.8,14c-1.9,2.1-4.3,3.9-7.1,5.3c-2.8,1.4-6,2.3-9.6,2.5c-0.3,0-0.5,0.1-0.8,0.1c-2.4-0.9-4.6-2.3-6.5-4.1
	c-0.7-0.7-1.4-1.5-2-2.3c-0.4-1.6-0.6-3.3-0.6-5C82,71.9,82.5,69,83.5,66.3z"/>
<path fill="#407DF4" d="M160,85h8c0-11.4-2.3-22.4-6.5-32.3c-6.3-14.9-16.8-27.6-30.1-36.5C118.2,7.2,102.2,2,85,2
	C73.6,2,62.6,4.3,52.7,8.5c-14.9,6.3-27.6,16.8-36.5,30.1C7.2,51.8,2,67.8,2,85c0,11.4,2.3,22.4,6.5,32.3
	c6.3,14.9,16.8,27.6,30.1,36.5C51.8,162.8,67.8,168,85,168c11.4,0,22.4-2.3,32.3-6.5c14.9-6.3,27.6-16.8,36.5-30.1
	c8.9-13.2,14.2-29.2,14.2-46.4H160h-8c0,9.3-1.9,18.1-5.3,26.1c-5.1,12-13.6,22.3-24.3,29.5C111.8,147.8,98.9,152,85,152
	c-9.3,0-18.1-1.9-26.1-5.3c-12-5.1-22.3-13.6-29.5-24.3C22.2,111.8,18,98.9,18,85c0-9.3,1.9-18.1,5.3-26.1
	c5.1-12,13.6-22.3,24.3-29.5C58.2,22.2,71.1,18,85,18c9.3,0,18.1,1.9,26.1,5.3c12,5.1,22.3,13.6,29.5,24.3
	C147.8,58.2,152,71.1,152,85H160z"/>
</svg>
