<?xml version="1.0" encoding="utf-8"?>
<!-- Generator: Adobe Illustrator 18.0.0, SVG Export Plug-In . SVG Version: 6.00 Build 0)  -->
<!DOCTYPE svg PUBLIC "-//W3C//DTD SVG 1.1//EN" "http://www.w3.org/Graphics/SVG/1.1/DTD/svg11.dtd">
<svg version="1.1" id="Layer_1" xmlns="http://www.w3.org/2000/svg" xmlns:xlink="http://www.w3.org/1999/xlink" x="0px" y="0px"
	 viewBox="0 0 170 170" enable-background="new 0 0 170 170" xml:space="preserve">
<circle fill="#FFFFFF" cx="84.1" cy="85" r="75"/>
<path fill="#407DF4" d="M119.6,50.4C110.8,41.5,98.5,36,85,36c-13.5,0-25.8,5.5-34.6,14.4C41.5,59.2,36,71.5,36,85
	c0,13.5,5.5,25.8,14.4,34.6C59.2,128.5,71.5,134,85,134c13.5,0,25.8-5.5,34.6-14.4c8.9-8.9,14.4-21.1,14.4-34.6
	C134,71.5,128.5,59.2,119.6,50.4z M56,114c-7.4-7.4-12-17.7-12-29c0-9.9,3.5-18.9,9.3-26l5,5c-3.1,3.9-5.4,8.6-6.5,13.7c0,0,0,0,0,0
	c0,0,0,0,0,0c-0.1,0.6-0.2,1.1-0.3,1.7c0,0,0,0.1,0,0.1c-0.1,0.5-0.2,1.1-0.2,1.7c0,0.1,0,0.1,0,0.2c-0.1,0.5-0.1,1-0.1,1.6
	c0,0.1,0,0.2,0,0.3c0,0.6-0.1,1.2-0.1,1.8c0,0.6,0,1.2,0.1,1.8c0,0.1,0,0.2,0,0.3c0,0.5,0.1,1.1,0.1,1.6c0,0.1,0,0.1,0,0.2
	c0.1,0.6,0.1,1.1,0.2,1.7c0,0,0,0.1,0,0.1c0.1,0.6,0.2,1.1,0.3,1.7c0,0,0,0,0,0c0,0,0,0,0,0c1.4,6.4,4.7,12.2,9.1,16.7
	c0.3,0.3,0.7,0.7,1,1c0,0,0,0,0,0c0,0,0,0,0,0c0.9,0.8,1.8,1.5,2.7,2.3c0.1,0.1,0.2,0.1,0.3,0.2c0.4,0.3,0.8,0.6,1.2,0.8
	c0.1,0.1,0.3,0.2,0.4,0.3c0.4,0.2,0.8,0.5,1.1,0.7c0.1,0,0.1,0.1,0.2,0.1c0.1,0,0.2,0.1,0.2,0.1c0.4,0.2,0.8,0.5,1.2,0.7
	c0.1,0.1,0.2,0.1,0.3,0.2c0.5,0.2,1,0.5,1.5,0.7c0,0,0.1,0,0.1,0.1c4.2,1.8,8.8,2.8,13.6,2.8c4.2,0,8.2-0.8,11.9-2.2
	c0,0,0.1,0,0.1,0c0.5-0.2,1-0.4,1.5-0.6c0.1-0.1,0.3-0.1,0.4-0.2c0.4-0.2,0.8-0.4,1.2-0.6c0.2-0.1,0.4-0.2,0.6-0.3
	c0.3-0.2,0.6-0.3,1-0.5c0.1-0.1,0.2-0.1,0.4-0.2c0.1-0.1,0.2-0.1,0.3-0.2c0.3-0.2,0.6-0.3,0.8-0.5c0.2-0.1,0.5-0.3,0.7-0.4
	c0.3-0.2,0.5-0.3,0.8-0.5c0.2-0.2,0.5-0.3,0.7-0.5c0.2-0.2,0.4-0.3,0.7-0.5c0,0,0.1,0,0.1-0.1l5,5c-7.1,5.8-16.1,9.3-26,9.3
	C73.7,126,63.4,121.4,56,114z M90,59.5c0,1.4,0.8,2.7,2,3.4l8.7,5c1.2,0.7,2.7,0.7,3.9,0c2.2,2.5,3.9,5.4,5,8.7
	c-1.2,0.7-1.9,2-1.9,3.4v10c0,1.4,0.7,2.7,1.9,3.4c-0.9,2.5-2.1,4.8-3.6,6.9l-8.7-8.7c0.2-0.5,0.4-1.1,0.4-1.6V80
	c0-1.4-0.8-2.7-2-3.5l-8.7-5c-1.2-0.7-2.8-0.7-4,0l-3.7,2.1L72,66.3l6-3.5c1.2-0.7,2-2,2-3.4c1.6-0.3,3.3-0.5,5-0.5
	C86.7,59,88.4,59.2,90,59.5z M80,110.5c0-1.4-0.8-2.7-2-3.4l-8.7-5c-1.2-0.7-2.7-0.7-3.9,0c-2.2-2.5-3.9-5.5-5-8.7
	c1.2-0.7,1.9-2,1.9-3.4V80c0-1.4-0.7-2.7-1.9-3.4c0.9-2.5,2.1-4.8,3.6-6.9l8.7,8.7c-0.2,0.5-0.4,1.1-0.4,1.6v10c0,1.4,0.8,2.7,2,3.5
	l8.7,5c1.2,0.7,2.8,0.7,4,0l3.7-2.1l7.3,7.3l-6,3.5c-1.2,0.7-2,2-2,3.4c-1.6,0.3-3.3,0.5-5,0.5C83.3,111,81.6,110.8,80,110.5z
	 M116.7,111l-5-5c3.1-3.9,5.4-8.6,6.5-13.7c0,0,0,0,0,0c0,0,0,0,0,0c0.1-0.6,0.2-1.1,0.3-1.7c0,0,0-0.1,0-0.1
	c0.1-0.5,0.2-1.1,0.2-1.7c0-0.1,0-0.1,0-0.2c0.1-0.5,0.1-1,0.1-1.6c0-0.1,0-0.2,0-0.3c0-0.6,0.1-1.2,0.1-1.9s0-1.2-0.1-1.9
	c0-0.1,0-0.2,0-0.3c0-0.5-0.1-1.1-0.1-1.6c0-0.1,0-0.1,0-0.2c-0.1-0.6-0.1-1.1-0.2-1.7c0,0,0-0.1,0-0.1c-0.1-0.6-0.2-1.1-0.3-1.7
	c0,0,0,0,0,0c0,0,0,0,0,0c-1.4-6.4-4.7-12.2-9.1-16.7c-1.6-1.6-3.4-3.1-5.4-4.4c0,0-0.1-0.1-0.1-0.1c-0.5-0.3-0.9-0.6-1.4-0.9
	c0,0-0.1,0-0.1,0c0,0-0.1,0-0.1-0.1c-0.5-0.3-1-0.6-1.5-0.8c0,0,0,0-0.1,0C95.7,52.3,90.5,51,85,51c-7.9,0-15.3,2.7-21,7.3l-5-5
	c7.1-5.8,16.1-9.3,26-9.3c11.3,0,21.6,4.6,29,12c7.4,7.4,12,17.7,12,29C126,94.9,122.5,103.9,116.7,111z"/>
<path fill="#407DF4" d="M160,85h8c0-11.4-2.3-22.4-6.5-32.3c-6.3-14.9-16.8-27.6-30.1-36.5C118.2,7.2,102.2,2,85,2
	C73.6,2,62.6,4.3,52.7,8.5c-14.9,6.3-27.6,16.8-36.5,30.1C7.2,51.8,2,67.8,2,85c0,11.4,2.3,22.4,6.5,32.3
	c6.3,14.9,16.8,27.6,30.1,36.5C51.8,162.8,67.8,168,85,168c11.4,0,22.4-2.3,32.3-6.5c14.9-6.3,27.6-16.8,36.5-30.1
	c8.9-13.2,14.2-29.2,14.2-46.4H160h-8c0,9.3-1.9,18.1-5.3,26.1c-5.1,12-13.6,22.3-24.3,29.5C111.8,147.8,98.9,152,85,152
	c-9.3,0-18.1-1.9-26.1-5.3c-12-5.1-22.3-13.6-29.5-24.3C22.2,111.8,18,98.9,18,85c0-9.3,1.9-18.1,5.3-26.1
	c5.1-12,13.6-22.3,24.3-29.5C58.2,22.2,71.1,18,85,18c9.3,0,18.1,1.9,26.1,5.3c12,5.1,22.3,13.6,29.5,24.3
	C147.8,58.2,152,71.1,152,85H160z"/>
</svg>
