<?xml version="1.0" encoding="utf-8"?>
<!-- Generator: Adobe Illustrator 18.0.0, SVG Export Plug-In . SVG Version: 6.00 Build 0)  -->
<!DOCTYPE svg PUBLIC "-//W3C//DTD SVG 1.1//EN" "http://www.w3.org/Graphics/SVG/1.1/DTD/svg11.dtd">
<svg version="1.1" id="Layer_1" xmlns="http://www.w3.org/2000/svg" x="0px" y="0px"
     viewBox="0 0 170 170" enable-background="new 0 0 170 170" xml:space="preserve">
<circle fill="#FFFFFF" cx="85.4" cy="85" r="75"/>
    <path fill="#407DF4" d="M119.9,67L119.9,67c0.1-0.4,0.1-0.7,0.1-1.1c0-1-0.2-2-0.6-2.9c-0.6-1.3-1.5-2.4-2.7-3.1
	c-1.1-0.7-2.5-1.2-3.9-1.2c-1,0-2,0.2-2.9,0.6c-1.9,0.9-4.1,1.3-6.4,1.3c-5.3,0-9.9-2.5-12.7-6.4l0,0c-0.7-1-1.6-1.7-2.6-2.2
	c-1-0.5-2.1-0.7-3.2-0.7c-1.1,0-2.2,0.2-3.2,0.7c-1,0.5-1.9,1.3-2.6,2.2c-2.8,3.9-7.4,6.4-12.7,6.4c-2.3,0-4.5-0.5-6.4-1.3
	c-0.9-0.4-2-0.6-2.9-0.6c-1.9,0-3.7,0.7-5,2c-0.7,0.6-1.2,1.4-1.6,2.3c-0.4,0.9-0.6,1.8-0.6,2.9c0,0.4,0,0.7,0.1,1.1l0,0
	c0,0,0,0,0,0c0,0,0,0,0,0l0,0c1.5,10.3,5.5,22.5,11.1,33.2c2.8,5.3,6.1,10.3,9.8,14.5c3.7,4.1,7.8,7.5,12.5,9.4c1,0.4,2,0.4,3,0
	c4.7-1.9,8.8-5.3,12.5-9.4c5.5-6.2,10.1-14.3,13.7-22.7C116.3,83.5,118.8,74.7,119.9,67z M101.7,96.5c-2.6,4.9-5.5,9.4-8.7,12.9
	c-2.6,3-5.4,5.2-8.1,6.6c-2.7-1.4-5.4-3.6-8.1-6.6c-4.7-5.3-9-12.7-12.3-20.5c-3.1-7.3-5.3-14.9-6.4-21.5c2.6,1,5.4,1.5,8.3,1.5
	c7.5,0,14.2-3.4,18.5-8.8c4.3,5.4,11,8.8,18.5,8.8c2.9,0,5.7-0.5,8.3-1.5C110.2,76.3,106.7,87.2,101.7,96.5z"/>
    <g>
	<path fill="#407DF4" d="M38.3,49h41c0.2-0.1,0.5-0.3,0.7-0.4c1.6-0.8,3.3-1.2,5-1.2c1.7,0,3.4,0.4,5,1.2c0.3,0.1,0.5,0.3,0.7,0.4
		h41c-2.2-2.9-4.7-5.6-7.4-8H45.7C43,43.4,40.5,46.1,38.3,49z"/>
        <path fill="#407DF4" d="M123.9,67.6c-0.6,4.1-1.6,8.5-2.9,12.9V101h-8.1c-1.4,2.8-3,5.4-4.6,8h15.1l9.9,9.9c1.6-2.2,3-4.6,4.3-7
		l-8.5-8.5l0-36.7l8.5-8.5c-1.1-2.1-2.3-4.1-3.6-6.1c-0.2-0.3-0.4-0.6-0.7-0.9L123,61.3c0,0,0,0.1,0.1,0.1c0.6,1.4,0.9,2.9,0.9,4.5
		C124,66.5,124,67,123.9,67.6L123.9,67.6z"/>
        <path fill="#407DF4"
              d="M141,66.4v37.2c1.9-5.8,3-12.1,3-18.6c0-6.1-0.9-12-2.7-17.6C141.2,67.1,141.1,66.7,141,66.4z"/>
        <path fill="#407DF4" d="M61.7,109c-1.7-2.6-3.2-5.2-4.6-8H49V80.5c-1.3-4.4-2.3-8.8-2.9-12.9c0,0,0,0,0,0l0,0c0,0,0,0,0,0
		C46,67,46,66.5,46,65.9c0-1.6,0.4-3.2,1-4.6L36.7,51.1c-1.6,2.2-3,4.6-4.3,7l8.5,8.5l0,36.7l-8.5,8.5c1.1,2.1,2.3,4.1,3.6,6.1
		c0.2,0.3,0.4,0.6,0.7,0.9l9.9-9.9H61.7z"/>
        <path fill="#407DF4" d="M26,85c0,6.1,0.9,12,2.6,17.6c0.1,0.4,0.2,0.7,0.3,1.1V66.4C27.1,72.2,26,78.5,26,85z"/>
</g>
    <path fill="#407DF4" d="M160,85h8c0-11.4-2.3-22.4-6.5-32.3c-6.3-14.9-16.8-27.6-30.1-36.5C118.2,7.2,102.2,2,85,2
	C73.6,2,62.6,4.3,52.7,8.5c-14.9,6.3-27.6,16.8-36.5,30.1C7.2,51.8,2,67.8,2,85c0,11.4,2.3,22.4,6.5,32.3
	c6.3,14.9,16.8,27.6,30.1,36.5C51.8,162.8,67.8,168,85,168c11.4,0,22.4-2.3,32.3-6.5c14.9-6.3,27.6-16.8,36.5-30.1
	c8.9-13.2,14.2-29.2,14.2-46.4H160h-8c0,9.3-1.9,18.1-5.3,26.1c-5.1,12-13.6,22.3-24.3,29.5C111.8,147.8,98.9,152,85,152
	c-9.3,0-18.1-1.9-26.1-5.3c-12-5.1-22.3-13.6-29.5-24.3C22.2,111.8,18,98.9,18,85c0-9.3,1.9-18.1,5.3-26.1
	c5.1-12,13.6-22.3,24.3-29.5C58.2,22.2,71.1,18,85,18c9.3,0,18.1,1.9,26.1,5.3c12,5.1,22.3,13.6,29.5,24.3
	C147.8,58.2,152,71.1,152,85H160z"/>
</svg>
