<?xml version="1.0" encoding="utf-8"?>
<!-- Generator: Adobe Illustrator 18.0.0, SVG Export Plug-In . SVG Version: 6.00 Build 0)  -->
<!DOCTYPE svg PUBLIC "-//W3C//DTD SVG 1.1//EN" "http://www.w3.org/Graphics/SVG/1.1/DTD/svg11.dtd">
<svg version="1.1" id="Layer_1" xmlns="http://www.w3.org/2000/svg" x="0px" y="0px"
     viewBox="0 0 170 170" enable-background="new 0 0 170 170" xml:space="preserve">
<circle fill="#FFFFFF" cx="84.1" cy="85" r="75"/>
    <g>
	<path fill="#407DF4" d="M66.1,109.3c-2.5-2.5-6-4.1-9.9-4.1c-3.9,0-7.4,1.6-9.9,4.1c-2.5,2.5-4.1,6-4.1,9.9c0,3.9,1.6,7.4,4.1,9.9
		c2.5,2.5,6,4.1,9.9,4.1c3.9,0,7.4-1.6,9.9-4.1c2.5-2.5,4.1-6,4.1-9.9C70.2,115.3,68.6,111.8,66.1,109.3z M60.4,123.4
		c-1.1,1.1-2.6,1.8-4.2,1.8c-1.7,0-3.1-0.7-4.2-1.8c-1.1-1.1-1.8-2.6-1.8-4.2c0-1.7,0.7-3.1,1.8-4.2c1.1-1.1,2.6-1.8,4.2-1.8
		c1.7,0,3.1,0.7,4.2,1.8c1.1,1.1,1.8,2.6,1.8,4.2C62.2,120.9,61.5,122.3,60.4,123.4z"/>
        <path fill="#407DF4" d="M85,52.2L85,52.2C85,52.2,85,52.2,85,52.2c0.5,0.2,1.1,0.4,1.7,0.5c0,0,0.1,0,0.1,0c0.3,0,0.5,0.1,0.8,0.1
		c0.3,0,0.6,0,0.9,0c0.5,0,1,0,1.5-0.1c0.3-0.1,0.6-0.1,1-0.2c0.1,0,0.2-0.1,0.4-0.1c0.2-0.1,0.4-0.1,0.5-0.2
		c0.2-0.1,0.3-0.1,0.5-0.2c0.1-0.1,0.3-0.1,0.4-0.2c0.2-0.1,0.3-0.2,0.5-0.3c0.1-0.1,0.2-0.1,0.3-0.2c0.2-0.1,0.4-0.2,0.5-0.3
		c0.1,0,0.1-0.1,0.2-0.1c0.2-0.1,0.4-0.3,0.6-0.4c0,0,0.1-0.1,0.1-0.1c0.2-0.2,0.4-0.3,0.6-0.5c0,0,0,0,0.1-0.1
		c0.2-0.2,0.4-0.4,0.6-0.6c0,0,0,0,0,0l0,0c1.8-2.1,2.7-5,2.2-7.9c-0.8-4.9-5-8.5-9.9-8.5c-0.5,0-1,0-1.5,0.1
		c-5.5,0.8-9.2,5.9-8.4,11.4C79.1,48,81.7,51,85,52.2z"/>
        <path fill="#407DF4" d="M127.7,72.8l-3.2-18.5c-0.3-1.7-1.6-3-3.3-3.3l-14.5-2.2c-0.4-0.1-0.8,0-1.3,0c-0.2,0.4-0.3,0.9-0.5,1.3
		l0,0c-0.2,0.5-0.5,1.1-0.8,1.6c0,0.1-0.1,0.1-0.1,0.2c-0.3,0.5-0.6,1-1,1.5c-0.2,0.3-0.4,0.5-0.6,0.7l0,0c-2.6,3.1-6.1,5.3-10,6.2
		l0,0c-0.4,0.1-0.8,0.2-1.1,0.2c-0.9,0.1-1.8,0.2-2.8,0.2c-0.5,0-0.9,0-1.4-0.1c-0.2,0-0.5,0-0.7-0.1c-1.6-0.2-3.2-0.6-4.7-1.2
		l-8.3,4.4c-0.7,0.4-1.3,0.9-1.6,1.6l-8.2,15c-1.1,1.9-0.4,4.4,1.6,5.4c1.9,1.1,4.4,0.4,5.4-1.6l0,0l7.7-14l8.9-4.7l4.2,27.1
		l-9.5,10.7c-0.2,0.3-0.5,0.6-0.6,0.9l-11,23c-1,2-0.1,4.4,1.9,5.3c2,1,4.4,0.1,5.3-1.9l10.8-22.5L100.8,94l2.9-0.4l3.7,14.1l-7.7,8
		c-1.5,1.6-1.5,4.1,0.1,5.7c1.6,1.5,4.1,1.5,5.7-0.1l9.3-9.6c1-1,1.3-2.4,1-3.8l-5-19.2c0-0.4,0-0.8,0-1.2l-4.7-30.7l11.2,1.7
		l2.7,15.7c0.4,2.2,2.4,3.6,4.6,3.3C126.7,77,128.1,74.9,127.7,72.8z"/>
</g>
    <path fill="#407DF4" d="M160,85h8c0-11.4-2.3-22.4-6.5-32.3c-6.3-14.9-16.8-27.6-30.1-36.5C118.2,7.2,102.2,2,85,2
	C73.6,2,62.6,4.3,52.7,8.5c-14.9,6.3-27.6,16.8-36.5,30.1C7.2,51.8,2,67.8,2,85c0,11.4,2.3,22.4,6.5,32.3
	c6.3,14.9,16.8,27.6,30.1,36.5C51.8,162.8,67.8,168,85,168c11.4,0,22.4-2.3,32.3-6.5c14.9-6.3,27.6-16.8,36.5-30.1
	c8.9-13.2,14.2-29.2,14.2-46.4H160h-8c0,9.3-1.9,18.1-5.3,26.1c-5.1,12-13.6,22.3-24.3,29.5C111.8,147.8,98.9,152,85,152
	c-9.3,0-18.1-1.9-26.1-5.3c-12-5.1-22.3-13.6-29.5-24.3C22.2,111.8,18,98.9,18,85c0-9.3,1.9-18.1,5.3-26.1
	c5.1-12,13.6-22.3,24.3-29.5C58.2,22.2,71.1,18,85,18c9.3,0,18.1,1.9,26.1,5.3c12,5.1,22.3,13.6,29.5,24.3
	C147.8,58.2,152,71.1,152,85H160z"/>
</svg>
