<?xml version="1.0" encoding="utf-8"?>
<!-- Generator: Adobe Illustrator 18.0.0, SVG Export Plug-In . SVG Version: 6.00 Build 0)  -->
<!DOCTYPE svg PUBLIC "-//W3C//DTD SVG 1.1//EN" "http://www.w3.org/Graphics/SVG/1.1/DTD/svg11.dtd">
<svg version="1.1" id="Layer_1" xmlns="http://www.w3.org/2000/svg" x="0px" y="0px"
     viewBox="0 0 170 170" enable-background="new 0 0 170 170" xml:space="preserve">
<circle fill="#FFFFFF" cx="85" cy="85" r="75"/>
    <g>
	<path fill="#407DF4" d="M87.8,113.3c-3.9,0-7.4,1.6-9.9,4.1c-2.5,2.5-4.1,6-4.1,9.9c0,3.9,1.6,7.4,4.1,9.9c2.5,2.5,6,4.1,9.9,4.1
		c3.9,0,7.4-1.6,9.9-4.1c2.5-2.5,4.1-6,4.1-9.9c0-3.9-1.6-7.4-4.1-9.9C95.2,114.9,91.7,113.3,87.8,113.3z M92,131.5
		c-1.1,1.1-2.6,1.8-4.2,1.8c-1.7,0-3.1-0.7-4.2-1.8c-1.1-1.1-1.8-2.6-1.8-4.2c0-1.7,0.7-3.1,1.8-4.2c1.1-1.1,2.6-1.8,4.2-1.8
		c1.7,0,3.1,0.7,4.2,1.8c1.1,1.1,1.8,2.6,1.8,4.2C93.8,129,93.1,130.4,92,131.5z"/>
        <path fill="#407DF4" d="M87.2,48.4c0.1,0,0.2,0.1,0.3,0.1c0.2,0,0.3,0.1,0.5,0.1c0.2,0,0.3,0.1,0.5,0.1c0.1,0,0.2,0,0.4,0
		c0.3,0,0.6,0,0.9,0s0.6,0,0.9,0c0.1,0,0.2,0,0.4,0c0.2,0,0.3,0,0.5-0.1c0.2,0,0.3-0.1,0.5-0.1c0.1,0,0.2-0.1,0.3-0.1
		c0.2,0,0.3-0.1,0.5-0.1l0,0l0,0c4-1.3,6.9-5.1,6.9-9.5c0-5.5-4.5-10-10-10c-5.5,0-10,4.5-10,10C79.8,43.3,83,47.2,87.2,48.4z"/>
        <path fill="#407DF4" d="M123.1,60.9L123.1,60.9l-17.8-1.7l-8.1-4.1c-0.5,0.2-1,0.4-1.5,0.6c-0.3,0.1-0.5,0.2-0.8,0.2
		c-0.3,0.1-0.6,0.2-0.9,0.2c-0.3,0.1-0.5,0.1-0.8,0.2c-0.3,0.1-0.7,0.1-1,0.2c-0.2,0-0.4,0.1-0.7,0.1c-0.6,0.1-1.2,0.1-1.8,0.1
		c-1,0-2-0.1-3-0.3c0,0,0,0,0,0c-2.2-0.4-4.3-1.1-6.1-2.3c0,0,0,0,0,0c-0.9-0.5-1.8-1.2-2.6-1.9c0,0,0,0,0,0c-0.4-0.3-0.7-0.7-1.1-1
		c-0.1-0.1-0.1-0.1-0.2-0.2c-0.3-0.3-0.6-0.6-0.8-1c0-0.1-0.1-0.1-0.1-0.2v0l-17.9,2.5c-1,0.1-1.8,0.6-2.5,1.3l-11.3,13
		c-1.4,1.7-1.3,4.2,0.4,5.6c1.7,1.4,4.2,1.3,5.6-0.4l10.3-11.9l15.3-2.1v33.4l-6.2,13.5L48.1,106c-2.2,0.1-3.9,2-3.8,4.2
		c0.1,2.2,2,3.9,4.2,3.8l24-1c1.5-0.1,2.8-1,3.5-2.3l8-17.4h4.1l13.3,13.2l7.7,22.2c0.7,2.1,3,3.2,5.1,2.5c2.1-0.7,3.2-3,2.5-5.1
		l-8-23c-0.2-0.6-0.5-1.1-1-1.5L95.8,89.8V63.3l6.6,3.3c0.5,0.2,0.9,0.4,1.4,0.4l18.6,1.8c2.2,0.2,4.2-1.4,4.4-3.6
		S125.3,61.1,123.1,60.9z"/>
</g>
    <path fill="#407DF4" d="M160,85h8c0-11.4-2.3-22.4-6.5-32.3c-6.3-14.9-16.8-27.6-30.1-36.5C118.2,7.2,102.2,2,85,2
	C73.6,2,62.6,4.3,52.7,8.5c-14.9,6.3-27.6,16.8-36.5,30.1C7.2,51.8,2,67.8,2,85c0,11.4,2.3,22.4,6.5,32.3
	c6.3,14.9,16.8,27.6,30.1,36.5C51.8,162.8,67.8,168,85,168c11.4,0,22.4-2.3,32.3-6.5c14.9-6.3,27.6-16.8,36.5-30.1
	c8.9-13.2,14.2-29.2,14.2-46.4H160h-8c0,9.3-1.9,18.1-5.3,26.1c-5.1,12-13.6,22.3-24.3,29.5C111.8,147.8,98.9,152,85,152
	c-9.3,0-18.1-1.9-26.1-5.3c-12-5.1-22.3-13.6-29.5-24.3C22.2,111.8,18,98.9,18,85c0-9.3,1.9-18.1,5.3-26.1
	c5.1-12,13.6-22.3,24.3-29.5C58.2,22.2,71.1,18,85,18c9.3,0,18.1,1.9,26.1,5.3c12,5.1,22.3,13.6,29.5,24.3
	C147.8,58.2,152,71.1,152,85H160z"/>
</svg>
