<?xml version="1.0" encoding="utf-8"?>
<!-- Generator: Adobe Illustrator 18.0.0, SVG Export Plug-In . SVG Version: 6.00 Build 0)  -->
<!DOCTYPE svg PUBLIC "-//W3C//DTD SVG 1.1//EN" "http://www.w3.org/Graphics/SVG/1.1/DTD/svg11.dtd">
<svg version="1.1" id="Layer_1" xmlns="http://www.w3.org/2000/svg" x="0px" y="0px"
     viewBox="0 0 170 170" enable-background="new 0 0 170 170" xml:space="preserve">
<circle fill="#FFFFFF" cx="84.1" cy="85" r="75"/>
    <path fill="#407DF4" d="M97,109.8l-12-12v-8.1c-2.8,1-5.4,2.3-8,3.7v2.1h-3.6c-0.5,0.3-1,0.6-1.5,1c-3.1,2.1-6,4.5-8.7,7h16.1
	l18.8,18.8c1.1,1.1,2.9,1.5,4.4,0.9c1.5-0.6,2.5-2.1,2.5-3.7V85.8c-2.7,0.1-5.4,0.3-8,0.8V109.8z"/>
    <path fill="#407DF4" d="M160,85h8c0-11.4-2.3-22.4-6.5-32.3c-6.3-14.9-16.8-27.6-30.1-36.5C118.2,7.2,102.2,2,85,2
	C73.6,2,62.6,4.3,52.7,8.5c-14.9,6.3-27.6,16.8-36.5,30.1C7.2,51.8,2,67.8,2,85c0,11.4,2.3,22.4,6.5,32.3
	c6.3,14.9,16.8,27.6,30.1,36.5C51.8,162.8,67.8,168,85,168c11.4,0,22.4-2.3,32.3-6.5c14.9-6.3,27.6-16.8,36.5-30.1
	c8.9-13.2,14.2-29.2,14.2-46.4H160h-8c0,9.3-1.9,18.1-5.3,26.1c-5.1,12-13.6,22.3-24.3,29.5C111.8,147.8,98.9,152,85,152
	c-9.3,0-18.1-1.9-26.1-5.3c-12-5.1-22.3-13.6-29.5-24.3C22.2,111.8,18,98.9,18,85c0-9.3,1.9-18.1,5.3-26.1
	c5.1-12,13.6-22.3,24.3-29.5C58.2,22.2,71.1,18,85,18c9.3,0,18.1,1.9,26.1,5.3c12,5.1,22.3,13.6,29.5,24.3
	C147.8,58.2,152,71.1,152,85H160z"/>
    <g>
	<polygon fill="#407DF4" points="32.4,43.5 32.4,43.5 32.4,43.5 	"/>
        <path fill="#407DF4" d="M37.9,37.3c-0.1,0.1-0.2,0.2-0.3,0.3C37.8,37.5,37.8,37.4,37.9,37.3z"/>
        <polygon fill="#407DF4" points="39.8,35.5 39.8,35.5 39.8,35.5 	"/>
        <path fill="#407DF4" d="M77,63.5v10c2.6-1,5.3-1.9,8-2.7v-9.6l12-12v19.2c2.6-0.3,5.3-0.5,8-0.6V39.5c0-0.3,0-0.5-0.1-0.8
		c0,0,0,0,0,0c-0.1-0.5-0.3-1-0.6-1.4c-0.1-0.2-0.3-0.4-0.5-0.6c0,0,0,0,0,0c0,0,0,0-0.1,0c-0.2-0.2-0.4-0.3-0.6-0.5
		c-0.4-0.3-0.9-0.5-1.4-0.6c0,0,0,0,0,0c-0.3-0.1-0.5-0.1-0.8-0.1c0,0,0,0,0,0H52.9c-0.3,0.2-0.6,0.4-0.9,0.6
		c-3.2,2.2-6.2,4.7-8.9,7.4h48.3l-12,12H33.9c-1.2,2.1-2.3,4.3-3.3,6.5c-0.2,0.5-0.4,1-0.6,1.5H77z"/>
        <path fill="#407DF4" d="M35.8,39.5c0.1-0.1,0.1-0.2,0.2-0.2C36,39.3,35.9,39.4,35.8,39.5z"/>
        <path fill="#407DF4" d="M34.1,41.5c0,0,0.1-0.1,0.1-0.1C34.2,41.4,34.1,41.4,34.1,41.5z"/>
        <polygon fill="#407DF4" points="21.5,63.5 21.5,63.5 21.5,63.5 	"/>
        <path fill="#407DF4" d="M23.3,58.9c0.3-0.6,0.5-1.2,0.8-1.8C23.8,57.7,23.5,58.3,23.3,58.9c-0.3,0.8-0.6,1.6-0.9,2.4
		C22.6,60.5,22.9,59.7,23.3,58.9z"/>
        <polygon fill="#407DF4" points="24.8,55.5 24.8,55.5 24.8,55.5 	"/>
</g>
    <g>
	<polygon fill="#407DF4" points="20.6,103.5 20.6,103.5 20.6,103.5 	"/>
        <path fill="#407DF4"
              d="M40,103.3c1.8-2.7,3.9-5.3,6-7.8H26.9c0.4,2.4,1,4.8,1.7,7c0.1,0.3,0.2,0.6,0.3,1h11L40,103.3z"/>
        <path fill="#407DF4" d="M19.6,99.6c0-0.1,0-0.1,0-0.2C19.6,99.5,19.6,99.5,19.6,99.6z"/>
        <path fill="#407DF4" d="M20.1,101.6c0-0.1,0-0.1,0-0.2C20.1,101.5,20.1,101.5,20.1,101.6z"/>
</g>
    <path fill="#407DF4" d="M107,80.8c0.2,0,0.3,0,0.5-0.1c0.7,3,2.2,5.6,4.3,7.7c3,3,7.1,4.8,11.7,4.8c4.5,0,8.7-1.9,11.7-4.8
	c3-3,4.8-7.1,4.8-11.7c0-4.5-1.9-8.7-4.8-11.7c-3-3-7.1-4.8-11.7-4.8c-4.5,0-8.7,1.9-11.7,4.8c-2.1,2.1-3.6,4.7-4.3,7.7
	c-0.2,0-0.3-0.1-0.5-0.1c-20.9,0-39.9,8.5-53.6,22.2c-6.9,6.9-12.5,15.2-16.4,24.5c1.8,2.5,3.8,4.8,5.9,7
	c3.4-9.8,8.9-18.6,16.1-25.8C71.3,88.3,88.3,80.8,107,80.8z M117.5,70.7c1.6-1.5,3.7-2.5,6-2.5c2.4,0,4.5,0.9,6,2.5
	c1.5,1.6,2.5,3.7,2.5,6c0,2.4-0.9,4.5-2.5,6c-1.6,1.5-3.7,2.5-6,2.5c-2.4,0-4.5-0.9-6-2.5c-1.5-1.6-2.5-3.7-2.5-6
	C115,74.4,115.9,72.3,117.5,70.7z"/>
</svg>
