<?xml version="1.0" encoding="utf-8"?>
<!-- Generator: Adobe Illustrator 18.0.0, SVG Export Plug-In . SVG Version: 6.00 Build 0)  -->
<!DOCTYPE svg PUBLIC "-//W3C//DTD SVG 1.1//EN" "http://www.w3.org/Graphics/SVG/1.1/DTD/svg11.dtd">
<svg version="1.1" id="Layer_1" xmlns="http://www.w3.org/2000/svg" x="0px" y="0px"
     viewBox="0 0 170 170" enable-background="new 0 0 170 170" xml:space="preserve">
<circle fill="#FFFFFF" cx="84.1" cy="85" r="75"/>
    <path fill="#407DF4" d="M137.5,78.8c-1.1-1.9-2.7-3.6-4.8-4.9L70,37.7l-2,3.5l2-3.5c-2-1.2-4.2-1.7-6.4-1.7c-3.4,0-6.5,1.3-8.9,3.6
	c-1.2,1.1-2.2,2.5-2.8,4.1c-0.7,1.6-1.1,3.3-1.1,5.1v72.4c0,1.8,0.4,3.6,1.1,5.1c1,2.3,2.7,4.3,4.8,5.6c2,1.3,4.5,2.1,7,2.1
	c2.1,0,4.4-0.6,6.4-1.7l62.7-36.2c2.1-1.2,3.7-2.9,4.8-4.9c1.1-1.9,1.6-4.1,1.6-6.2C139.1,82.9,138.6,80.7,137.5,78.8z M130.5,87.3
	c-0.4,0.7-1,1.3-1.8,1.8L66,125.3c-0.8,0.5-1.6,0.7-2.4,0.7c-1.2,0-2.5-0.5-3.3-1.4c-0.4-0.4-0.8-0.9-1.1-1.5
	c-0.2-0.6-0.4-1.2-0.4-1.9V48.8c0-0.7,0.1-1.4,0.4-1.9c0.4-0.8,1-1.6,1.8-2.1c0.8-0.5,1.7-0.8,2.6-0.8c0.8,0,1.6,0.2,2.4,0.7v0
	l62.7,36.2c0.8,0.5,1.4,1.1,1.8,1.8c0.4,0.7,0.6,1.5,0.6,2.3C131.1,85.8,130.9,86.6,130.5,87.3z"/>
    <path fill="#407DF4" d="M160,85h8c0-11.4-2.3-22.4-6.5-32.3c-6.3-14.9-16.8-27.6-30.1-36.5C118.2,7.2,102.2,2,85,2
	C73.6,2,62.6,4.3,52.7,8.5c-14.9,6.3-27.6,16.8-36.5,30.1C7.2,51.8,2,67.8,2,85c0,11.4,2.3,22.4,6.5,32.3
	c6.3,14.9,16.8,27.6,30.1,36.5C51.8,162.8,67.8,168,85,168c11.4,0,22.4-2.3,32.3-6.5c14.9-6.3,27.6-16.8,36.5-30.1
	c8.9-13.2,14.2-29.2,14.2-46.4H160h-8c0,9.3-1.9,18.1-5.3,26.1c-5.1,12-13.6,22.3-24.3,29.5C111.8,147.8,98.9,152,85,152
	c-9.3,0-18.1-1.9-26.1-5.3c-12-5.1-22.3-13.6-29.5-24.3C22.2,111.8,18,98.9,18,85c0-9.3,1.9-18.1,5.3-26.1
	c5.1-12,13.6-22.3,24.3-29.5C58.2,22.2,71.1,18,85,18c9.3,0,18.1,1.9,26.1,5.3c12,5.1,22.3,13.6,29.5,24.3
	C147.8,58.2,152,71.1,152,85H160z"/>
</svg>
