<?xml version="1.0" encoding="utf-8"?>
<!-- Generator: Adobe Illustrator 18.0.0, SVG Export Plug-In . SVG Version: 6.00 Build 0)  -->
<!DOCTYPE svg PUBLIC "-//W3C//DTD SVG 1.1//EN" "http://www.w3.org/Graphics/SVG/1.1/DTD/svg11.dtd">
<svg version="1.1" id="Layer_1" xmlns="http://www.w3.org/2000/svg" x="0px" y="0px"
     viewBox="0 0 170 170" enable-background="new 0 0 170 170" xml:space="preserve">
<circle fill="#FFFFFF" cx="84.1" cy="85" r="75"/>
    <g>
	<path fill="#407DF4" d="M71.3,131.8c-0.3,2.2,1.3,4.2,3.5,4.4c2.2,0.3,4.2-1.3,4.4-3.5l0.6-5.4l-7.5-4.5L71.3,131.8z"/>
        <path fill="#407DF4" d="M132.7,97.2c-2.5-2.5-6-4.1-9.9-4.1c-3.9,0-7.4,1.6-9.9,4.1c-2.5,2.5-4.1,6-4.1,9.9c0,3.9,1.6,7.4,4.1,9.9
		c2.5,2.5,6,4.1,9.9,4.1c3.9,0,7.4-1.6,9.9-4.1c2.5-2.5,4.1-6,4.1-9.9C136.8,103.2,135.2,99.7,132.7,97.2z M127.1,111.3
		c-1.1,1.1-2.6,1.8-4.2,1.8c-1.7,0-3.1-0.7-4.2-1.8c-1.1-1.1-1.8-2.6-1.8-4.2c0-1.7,0.7-3.1,1.8-4.2c1.1-1.1,2.6-1.8,4.2-1.8
		c1.7,0,3.1,0.7,4.2,1.8c1.1,1.1,1.8,2.6,1.8,4.2C128.8,108.8,128.1,110.2,127.1,111.3z"/>
        <path fill="#407DF4" d="M61.4,51.7C61.4,51.7,61.4,51.8,61.4,51.7c0.3,0.2,0.5,0.3,0.7,0.5c0,0,0.1,0.1,0.1,0.1
		c0.2,0.1,0.4,0.2,0.6,0.3c0.1,0,0.1,0.1,0.2,0.1c0.2,0.1,0.4,0.2,0.6,0.3c0.1,0,0.2,0.1,0.3,0.1c0.2,0.1,0.4,0.1,0.6,0.2
		c0.1,0,0.3,0.1,0.4,0.1c0.2,0,0.3,0.1,0.5,0.1c0.2,0,0.4,0.1,0.6,0.1c0.1,0,0.3,0,0.4,0.1c0.3,0,0.6,0,1,0c0.4,0,0.8,0,1.2-0.1
		c0.1,0,0.2,0,0.3,0c0.3-0.1,0.6-0.1,1-0.2c0.1,0,0.1,0,0.2-0.1c0.8-0.2,1.6-0.6,2.3-1l0,0l0,0c3-1.7,5-5,5-8.7c0-5.5-4.5-10-10-10
		c-5.5,0-10,4.5-10,10C57.3,47,58.9,49.9,61.4,51.7z"/>
        <path fill="#407DF4" d="M93.2,76.4L93.2,76.4L80.3,69l-6.8-8.4c-0.5,0.2-0.9,0.3-1.4,0.5c-0.1,0-0.1,0-0.2,0.1
		c-0.4,0.1-0.8,0.2-1.2,0.3c-0.1,0-0.3,0.1-0.4,0.1c-0.3,0.1-0.7,0.1-1,0.1c-0.1,0-0.3,0-0.4,0c-0.5,0-1,0.1-1.5,0.1
		c-0.5,0-1.1,0-1.6-0.1c-0.1,0-0.1,0-0.2,0c-0.5-0.1-1.1-0.1-1.6-0.2c0,0,0,0,0,0c-3.2-0.6-6-2.1-8.4-4.1c0,0,0,0,0,0
		c-1.3-1.2-2.5-2.5-3.5-4.1c-0.8-0.1-1.6,0-2.3,0.4h0l-12.1,6.1c-1.2,0.6-2,1.7-2.1,3l-2.2,15c-0.3,2.2,1.2,4.2,3.4,4.5
		c2.2,0.3,4.2-1.2,4.5-3.4l1.9-13l9.2-4.7v30.9c0,0.2,0,0.3,0.1,0.5c-0.1,0.9,0.1,1.9,0.6,2.7l11.4,17.8c0,0,0.1,0.1,0.1,0.1
		c0.1,0.1,0.2,0.2,0.3,0.3c0.1,0.1,0.2,0.2,0.3,0.3c0.1,0.1,0.2,0.2,0.3,0.2c0.1,0.1,0.2,0.2,0.4,0.3c0,0,0.1,0.1,0.1,0.1l22,13
		c1.9,1.1,4.4,0.5,5.5-1.4c1.1-1.9,0.5-4.4-1.4-5.5L70.6,108L63,96.2h2l6,7.5c0.3,0.1,0.5,0.3,0.8,0.4l10,5.9l0.4-3.3
		c0.1-1.1-0.2-2.1-0.9-3l-9.1-11.3V71.8l2.3,2.8c0.3,0.4,0.7,0.7,1.1,0.9l13.6,7.8c1.9,1.1,4.4,0.4,5.5-1.5
		C95.8,79.9,95.2,77.5,93.2,76.4z"/>
</g>
    <path fill="#407DF4" d="M160,85h8c0-11.4-2.3-22.4-6.5-32.3c-6.3-14.9-16.8-27.6-30.1-36.5C118.2,7.2,102.2,2,85,2
	C73.6,2,62.6,4.3,52.7,8.5c-14.9,6.3-27.6,16.8-36.5,30.1C7.2,51.8,2,67.8,2,85c0,11.4,2.3,22.4,6.5,32.3
	c6.3,14.9,16.8,27.6,30.1,36.5C51.8,162.8,67.8,168,85,168c11.4,0,22.4-2.3,32.3-6.5c14.9-6.3,27.6-16.8,36.5-30.1
	c8.9-13.2,14.2-29.2,14.2-46.4H160h-8c0,9.3-1.9,18.1-5.3,26.1c-5.1,12-13.6,22.3-24.3,29.5C111.8,147.8,98.9,152,85,152
	c-9.3,0-18.1-1.9-26.1-5.3c-12-5.1-22.3-13.6-29.5-24.3C22.2,111.8,18,98.9,18,85c0-9.3,1.9-18.1,5.3-26.1
	c5.1-12,13.6-22.3,24.3-29.5C58.2,22.2,71.1,18,85,18c9.3,0,18.1,1.9,26.1,5.3c12,5.1,22.3,13.6,29.5,24.3
	C147.8,58.2,152,71.1,152,85H160z"/>
</svg>
