<?xml version="1.0" encoding="utf-8"?>
<!-- Generator: Adobe Illustrator 18.0.0, SVG Export Plug-In . SVG Version: 6.00 Build 0)  -->
<!DOCTYPE svg PUBLIC "-//W3C//DTD SVG 1.1//EN" "http://www.w3.org/Graphics/SVG/1.1/DTD/svg11.dtd">
<svg version="1.1" id="Layer_1" xmlns="http://www.w3.org/2000/svg" x="0px" y="0px"
     viewBox="0 0 170 170" enable-background="new 0 0 170 170" xml:space="preserve">
<circle fill="#FFFFFF" cx="85" cy="85" r="75"/>
    <path fill="#407DF4" d="M61.2,124.9h39.6h6h2.5c3.2,0,6.1-1.3,8.1-3.4c2.1-2.1,3.4-5,3.4-8.1h0c0-1.7-0.4-3.4-1.1-4.9
	c1-0.5,1.9-1.2,2.7-2c2.1-2.1,3.4-5,3.4-8.1h0c0-2.3-0.7-4.5-1.9-6.4c0.2-0.2,0.4-0.3,0.6-0.5c2.1-2.1,3.4-5,3.4-8.1h0
	c0-3.2-1.3-6.1-3.4-8.1c-0.4-0.4-0.8-0.7-1.2-1c1-1.7,1.6-3.7,1.6-5.8h0c0-3.2-1.3-6.1-3.4-8.1c-2.1-2.1-5-3.4-8.1-3.4h-1.5H98.1
	h-3.5V40.4c0-3.2-1.3-6.1-3.4-8.1c-2.1-2.1-5-3.4-8.1-3.4c-3.2,0-6.1,1.3-8.1,3.4c-2.1,2.1-3.4,5-3.4,8.1v14.2c0,4.7-3,8.9-7.5,10.4
	L45,71.5c-2.1,0.7-3.2,3-2.5,5.1c0.7,2.1,3,3.2,5.1,2.5h0l19.1-6.4c7.7-2.6,13-9.8,13-18V40.4c0-1,0.4-1.8,1-2.5
	c0.6-0.6,1.5-1,2.5-1c1,0,1.8,0.4,2.5,1c0.6,0.6,1,1.5,1,2.5v33.8c0,3.1-1.2,5.8-3.2,7.8c-2,2-4.7,3.2-7.8,3.2h-4.7
	c-2.2,0-4,1.8-4,4c0,2.2,1.8,4,4,4l4.7,0c4.6,0,8.8-1.6,12.1-4.3c0.5,1,1.2,1.9,1.9,2.6c-1.5,1.9-2.3,4.3-2.3,6.9
	c0,3.2,1.3,6.1,3.4,8.1c0.2,0.2,0.4,0.3,0.6,0.5c-1.2,1.8-1.9,4-1.9,6.4c0,1.2,0.2,2.4,0.5,3.5H60.3c-0.6,0-1.1,0.1-1.6,0.3
	l-14.1,6.1c-1.1,0.5-1.8,1.4-2.2,2.4c1.7,1.7,3.5,3.4,5.3,4.9c0,0,0,0,0,0L61.2,124.9z M111.8,115.9c-0.6,0.6-1.5,1-2.5,1h-2.5h-6
	c-1,0-1.8-0.4-2.5-1c-0.6-0.6-1-1.5-1-2.5h0c0-1,0.4-1.8,1-2.5c0.6-0.6,1.5-1,2.5-1h8.5c1,0,1.8,0.4,2.5,1c0.6,0.6,1,1.5,1,2.5
	C112.8,114.4,112.4,115.3,111.8,115.9z M116.8,100.9c-0.6,0.6-1.5,1-2.5,1h-5h-8.5h-2c-1,0-1.8-0.4-2.5-1c-0.6-0.6-1-1.5-1-2.5h0
	c0-1,0.4-1.8,1-2.5c0.6-0.6,1.5-1,2.5-1h15.5c1,0,1.8,0.4,2.5,1c0.6,0.6,1,1.5,1,2.5C117.8,99.4,117.4,100.3,116.8,100.9z
	 M94.6,68.4c0-1,0.4-1.8,1-2.5c0.6-0.6,1.5-1,2.5-1h13.7h1.5c1,0,1.8,0.4,2.5,1c0.6,0.6,1,1.5,1,2.5c0,1-0.4,1.8-1,2.5
	c-0.6,0.6-1.5,1-2.5,1H98.1c-1,0-1.8-0.4-2.5-1C95,70.3,94.6,69.4,94.6,68.4L94.6,68.4z M94.3,83.4c0-1,0.4-1.8,1-2.5
	c0.6-0.6,1.5-1,2.5-1h0.3h15.2h3c1,0,1.8,0.4,2.5,1c0.6,0.6,1,1.5,1,2.5c0,1-0.4,1.8-1,2.5c-0.6,0.6-1.5,1-2.5,1h-2H98.8h-1
	c-1,0-1.8-0.4-2.5-1C94.7,85.3,94.3,84.4,94.3,83.4L94.3,83.4z"/>
    <path fill="#407DF4" d="M160,85h8c0-11.4-2.3-22.4-6.5-32.3c-6.3-14.9-16.8-27.6-30.1-36.5C118.2,7.2,102.2,2,85,2
	C73.6,2,62.6,4.3,52.7,8.5c-14.9,6.3-27.6,16.8-36.5,30.1C7.2,51.8,2,67.8,2,85c0,11.4,2.3,22.4,6.5,32.3
	c6.3,14.9,16.8,27.6,30.1,36.5C51.8,162.8,67.8,168,85,168c11.4,0,22.4-2.3,32.3-6.5c14.9-6.3,27.6-16.8,36.5-30.1
	c8.9-13.2,14.2-29.2,14.2-46.4H160h-8c0,9.3-1.9,18.1-5.3,26.1c-5.1,12-13.6,22.3-24.3,29.5C111.8,147.8,98.9,152,85,152
	c-9.3,0-18.1-1.9-26.1-5.3c-12-5.1-22.3-13.6-29.5-24.3C22.2,111.8,18,98.9,18,85c0-9.3,1.9-18.1,5.3-26.1
	c5.1-12,13.6-22.3,24.3-29.5C58.2,22.2,71.1,18,85,18c9.3,0,18.1,1.9,26.1,5.3c12,5.1,22.3,13.6,29.5,24.3
	C147.8,58.2,152,71.1,152,85H160z"/>
</svg>
