<?xml version="1.0" encoding="utf-8"?>
<!-- Generator: Adobe Illustrator 18.0.0, SVG Export Plug-In . SVG Version: 6.00 Build 0)  -->
<!DOCTYPE svg PUBLIC "-//W3C//DTD SVG 1.1//EN" "http://www.w3.org/Graphics/SVG/1.1/DTD/svg11.dtd">
<svg version="1.1" id="Layer_1" xmlns="http://www.w3.org/2000/svg" x="0px" y="0px"
     viewBox="0 0 170 170" enable-background="new 0 0 170 170" xml:space="preserve">
<circle fill="#FFFFFF" cx="85.4" cy="85" r="75"/>
    <g>
	<path fill="#407DF4" d="M95.7,81.5l-8.7-5c-1.2-0.7-2.8-0.7-4,0l-8.7,5c-1.2,0.7-2,2-2,3.5v10c0,1.4,0.8,2.7,2,3.5l8.7,5
		c1.2,0.7,2.8,0.7,4,0l8.7-5c1.2-0.7,2-2,2-3.5V85C97.7,83.6,96.9,82.3,95.7,81.5z"/>
        <path fill="#407DF4" d="M118.9,88.1c0-0.1,0-0.2,0-0.3c0-0.5-0.1-1.1-0.1-1.6c0-0.1,0-0.1,0-0.2c-0.1-0.6-0.1-1.1-0.2-1.7
		c0,0,0-0.1,0-0.1c-0.1-0.6-0.2-1.1-0.3-1.7c0,0,0,0,0,0c0,0,0,0,0,0c-1.4-6.4-4.7-12.2-9.1-16.7c-1.3-1.3-2.7-2.5-4.2-3.6
		c-0.3,0-0.6,0.1-0.8,0.1H66c-0.3,0-0.6,0-0.9-0.1c-1.5,1.1-2.9,2.3-4.2,3.6c-4.5,4.5-7.7,10.2-9.1,16.7c0,0,0,0,0,0c0,0,0,0,0,0
		c-0.1,0.6-0.2,1.1-0.3,1.7c0,0,0,0.1,0,0.1c-0.1,0.6-0.2,1.1-0.2,1.7c0,0.1,0,0.1,0,0.2c-0.1,0.5-0.1,1.1-0.1,1.6
		c0,0.1,0,0.2,0,0.3c0,0.6-0.1,1.2-0.1,1.9s0,1.2,0.1,1.9c0,0.1,0,0.2,0,0.3c0,0.5,0.1,1.1,0.1,1.6c0,0.1,0,0.1,0,0.2
		c0.1,0.6,0.1,1.1,0.2,1.7c0,0,0,0.1,0,0.1c0.1,0.6,0.2,1.1,0.3,1.7c0,0,0,0,0,0c0,0,0,0,0,0c1.4,6.4,4.7,12.2,9.1,16.7
		c0.3,0.3,0.7,0.7,1,1c0,0,0,0,0,0c0,0,0,0,0,0c0.9,0.8,1.8,1.6,2.7,2.3c0.1,0.1,0.2,0.1,0.3,0.2c0.4,0.3,0.8,0.6,1.2,0.8
		c0.1,0.1,0.3,0.2,0.4,0.3c0.4,0.2,0.8,0.5,1.1,0.7c0.1,0,0.1,0.1,0.2,0.1c0.1,0,0.2,0.1,0.2,0.1c0.4,0.2,0.8,0.5,1.2,0.7
		c0.1,0.1,0.2,0.1,0.3,0.2c0.5,0.2,1,0.5,1.5,0.7c0,0,0.1,0,0.1,0.1c4.2,1.8,8.8,2.8,13.6,2.8c4.2,0,8.2-0.8,11.9-2.2
		c0,0,0.1,0,0.1,0c0.5-0.2,1-0.4,1.5-0.6c0.1-0.1,0.3-0.1,0.4-0.2c0.4-0.2,0.8-0.4,1.2-0.5c0.2-0.1,0.4-0.2,0.6-0.3
		c0.3-0.2,0.6-0.3,1-0.5c0.1-0.1,0.2-0.1,0.4-0.2c0.1-0.1,0.2-0.1,0.3-0.2c0.3-0.2,0.6-0.3,0.8-0.5c0.2-0.1,0.5-0.3,0.7-0.4
		c0.3-0.2,0.5-0.3,0.7-0.5c0.2-0.2,0.5-0.3,0.7-0.5c0.2-0.2,0.4-0.3,0.6-0.5c0.7-0.6,1.4-1.1,2.1-1.7c0.1,0,0.1-0.1,0.1-0.1
		c0.3-0.3,0.6-0.6,0.9-0.9c4.5-4.5,7.7-10.2,9.1-16.7c0,0,0,0,0,0c0,0,0,0,0,0c0.1-0.6,0.2-1.1,0.3-1.7c0,0,0-0.1,0-0.1
		c0.1-0.5,0.2-1.1,0.2-1.7c0-0.1,0-0.1,0-0.2c0.1-0.5,0.1-1,0.1-1.6c0-0.1,0-0.2,0-0.3c0-0.6,0.1-1.2,0.1-1.9
		C119,89.4,119,88.8,118.9,88.1z M109.6,98.4c-1.1,3.2-2.8,6.2-5,8.7c-1.2-0.7-2.7-0.6-3.9,0l-8.7,5c-1.2,0.7-2,2-2,3.4
		c-1.6,0.3-3.3,0.5-5,0.5c-1.7,0-3.4-0.2-5-0.5c0-1.4-0.8-2.7-2-3.4l-8.7-5c-1.2-0.7-2.7-0.7-3.9,0c-2.2-2.5-3.9-5.5-5-8.7
		c1.2-0.7,1.9-2,1.9-3.4V85c0-1.4-0.7-2.7-1.9-3.4c1.1-3.2,2.8-6.2,5-8.7c1.2,0.7,2.7,0.7,3.9,0l8.7-5c1.2-0.7,2-2,2-3.4
		c1.6-0.3,3.3-0.5,5-0.5c1.7,0,3.4,0.2,5,0.5c0,1.4,0.8,2.7,2,3.4l8.7,5c1.2,0.7,2.7,0.7,3.9,0c2.2,2.5,3.9,5.4,5,8.7
		c-1.2,0.7-1.9,2-1.9,3.4v10C107.7,96.4,108.4,97.7,109.6,98.4z"/>
        <path fill="#407DF4" d="M66,58.5h38c0.6,0,1-0.4,1-1V39.9c0-0.6-0.5-1-1-1c-0.2,0-0.5,0.1-0.7,0.3l-9.4,9.4
		c-0.2,0.2-0.5,0.3-0.7,0.3c-0.3,0-0.6-0.2-0.8-0.4l-6.5-9.7c-0.2-0.3-0.5-0.4-0.8-0.4c-0.3,0-0.6,0.1-0.8,0.4l-6.5,9.7
		c-0.2,0.3-0.5,0.4-0.8,0.4c-0.3,0-0.5-0.1-0.7-0.3l-9.4-9.4c-0.2-0.2-0.5-0.3-0.7-0.3c-0.5,0-1,0.4-1,1v17.6
		C65,58,65.4,58.5,66,58.5z"/>
</g>
    <path fill="#407DF4" d="M160,85h8c0-11.4-2.3-22.4-6.5-32.3c-6.3-14.9-16.8-27.6-30.1-36.5C118.2,7.2,102.2,2,85,2
	C73.6,2,62.6,4.3,52.7,8.5c-14.9,6.3-27.6,16.8-36.5,30.1C7.2,51.8,2,67.8,2,85c0,11.4,2.3,22.4,6.5,32.3
	c6.3,14.9,16.8,27.6,30.1,36.5C51.8,162.8,67.8,168,85,168c11.4,0,22.4-2.3,32.3-6.5c14.9-6.3,27.6-16.8,36.5-30.1
	c8.9-13.2,14.2-29.2,14.2-46.4H160h-8c0,9.3-1.9,18.1-5.3,26.1c-5.1,12-13.6,22.3-24.3,29.5C111.8,147.8,98.9,152,85,152
	c-9.3,0-18.1-1.9-26.1-5.3c-12-5.1-22.3-13.6-29.5-24.3C22.2,111.8,18,98.9,18,85c0-9.3,1.9-18.1,5.3-26.1
	c5.1-12,13.6-22.3,24.3-29.5C58.2,22.2,71.1,18,85,18c9.3,0,18.1,1.9,26.1,5.3c12,5.1,22.3,13.6,29.5,24.3
	C147.8,58.2,152,71.1,152,85H160z"/>
</svg>
