<?xml version="1.0" encoding="utf-8"?>
<!-- Generator: Adobe Illustrator 18.0.0, SVG Export Plug-In . SVG Version: 6.00 Build 0)  -->
<!DOCTYPE svg PUBLIC "-//W3C//DTD SVG 1.1//EN" "http://www.w3.org/Graphics/SVG/1.1/DTD/svg11.dtd">
<svg version="1.1" id="Layer_1" xmlns="http://www.w3.org/2000/svg" x="0px" y="0px"
     viewBox="0 0 170 170" enable-background="new 0 0 170 170" xml:space="preserve">
<circle fill="#FFFFFF" cx="85" cy="85" r="75"/>
    <path fill="#407DF4"
          d="M89.9,109.8v-9.1l-8-9.9v28.6c0,1.6,1,3.1,2.5,3.7c1.5,0.6,3.2,0.3,4.4-0.9L99,112l-5.1-6.3L89.9,109.8z"/>
    <path fill="#407DF4" d="M86,75.3c-1-1.2-2.6-1.7-4.1-1.4l-24.6,6.2c-0.8-1.5-1.8-2.9-3-4.1c-3-3-7.1-4.8-11.7-4.8
	c-4.5,0-8.7,1.9-11.7,4.8c-3,3-4.8,7.1-4.8,11.7c0,4.5,1.9,8.7,4.8,11.7c3,3,7.1,4.8,11.7,4.8c4.5,0,8.7-1.9,11.7-4.8
	c2.9-2.9,4.8-7,4.8-11.5l22.3-5.6l39.9,49.2c2.1-1.6,4.1-3.4,6-5.3L86,75.3z M48.6,93.8c-1.6,1.5-3.7,2.5-6,2.5
	c-2.4,0-4.5-0.9-6-2.5c-1.5-1.6-2.5-3.7-2.5-6c0-2.4,0.9-4.5,2.5-6c1.6-1.5,3.7-2.5,6-2.5c2.4,0,4.5,0.9,6,2.5
	c1.5,1.6,2.5,3.7,2.5,6C51.1,90.1,50.2,92.2,48.6,93.8z"/>
    <path fill="#407DF4" d="M160,85h8c0-11.4-2.3-22.4-6.5-32.3c-6.3-14.9-16.8-27.6-30.1-36.5C118.2,7.2,102.2,2,85,2
	C73.6,2,62.6,4.3,52.7,8.5c-14.9,6.3-27.6,16.8-36.5,30.1C7.2,51.8,2,67.8,2,85c0,11.4,2.3,22.4,6.5,32.3
	c6.3,14.9,16.8,27.6,30.1,36.5C51.8,162.8,67.8,168,85,168c11.4,0,22.4-2.3,32.3-6.5c14.9-6.3,27.6-16.8,36.5-30.1
	c8.9-13.2,14.2-29.2,14.2-46.4H160h-8c0,9.3-1.9,18.1-5.3,26.1c-5.1,12-13.6,22.3-24.3,29.5C111.8,147.8,98.9,152,85,152
	c-9.3,0-18.1-1.9-26.1-5.3c-12-5.1-22.3-13.6-29.5-24.3C22.2,111.8,18,98.9,18,85c0-9.3,1.9-18.1,5.3-26.1
	c5.1-12,13.6-22.3,24.3-29.5C58.2,22.2,71.1,18,85,18c9.3,0,18.1,1.9,26.1,5.3c12,5.1,22.3,13.6,29.5,24.3
	C147.8,58.2,152,71.1,152,85H160z"/>
    <path fill="#407DF4" d="M117.1,35.5H85.9c-0.3,0-0.5,0-0.8,0.1c0,0,0,0,0,0c-0.5,0.1-1,0.3-1.4,0.6c-0.2,0.1-0.4,0.3-0.6,0.5
	c-0.2,0.2-0.4,0.4-0.5,0.6c-0.3,0.4-0.5,0.9-0.6,1.4c0,0,0,0,0,0c-0.1,0.3-0.1,0.5-0.1,0.8v29.4c3-0.3,6,0.9,8,3.3l0,0v-23l12,12V87
	l8,9.9v0l5.4,6.6H141c0.9-2.6,1.5-5.3,2-8h-33.2v-32H140c-1.1-2.8-2.4-5.4-3.9-8h-28.6l-12-12h31.4C124,40.5,120.7,37.8,117.1,35.5z
	"/>
</svg>
