<?xml version="1.0" encoding="utf-8"?>
<!-- Generator: Adobe Illustrator 18.0.0, SVG Export Plug-In . SVG Version: 6.00 Build 0)  -->
<!DOCTYPE svg PUBLIC "-//W3C//DTD SVG 1.1//EN" "http://www.w3.org/Graphics/SVG/1.1/DTD/svg11.dtd">
<svg version="1.1" id="Layer_1" xmlns="http://www.w3.org/2000/svg" x="0px" y="0px"
     viewBox="0 0 170 170" enable-background="new 0 0 170 170" xml:space="preserve">
<circle fill="#FFFFFF" cx="85" cy="85" r="75"/>
    <g>
	<path fill="#407DF4" d="M52.5,58.1c1.6,1.6,4.1,1.6,5.7,0c1.6-1.6,1.6-4.1,0-5.7l-4.9-4.9c-1.6-1.6-4.1-1.6-5.7,0
		c-1.6,1.6-1.6,4.1,0,5.7L52.5,58.1z"/>
        <path fill="#407DF4" d="M122.5,116.8l-4.9-4.9c-1.6-1.6-4.1-1.6-5.7,0c-1.6,1.6-1.6,4.1,0,5.7l4.9,4.9c1.6,1.6,4.1,1.6,5.7,0
		C124,120.9,124,118.4,122.5,116.8z"/>
        <path fill="#407DF4" d="M52.5,111.9l-4.9,4.9c-1.6,1.6-1.6,4.1,0,5.7c1.6,1.6,4.1,1.6,5.7,0l4.9-4.9c1.6-1.6,1.6-4.1,0-5.7
		C56.6,110.3,54,110.3,52.5,111.9z"/>
        <path fill="#407DF4" d="M117.5,58.1l4.9-4.9c1.6-1.6,1.6-4.1,0-5.7c-1.6-1.6-4.1-1.6-5.7,0l-4.9,4.9c-1.6,1.6-1.6,4.1,0,5.7
		C113.4,59.7,116,59.7,117.5,58.1z"/>
        <path fill="#407DF4" d="M95.7,93.5c1.2-0.7,2-2,2-3.5V80c0-1.4-0.8-2.7-2-3.5l-8.7-5c-1.2-0.7-2.8-0.7-4,0l-8.7,5
		c-1.2,0.7-2,2-2,3.5v10c0,1.4,0.8,2.7,2,3.5l8.7,5c1.2,0.7,2.8,0.7,4,0L95.7,93.5z"/>
        <path fill="#407DF4" d="M118.2,92.4C118.2,92.4,118.2,92.4,118.2,92.4C118.2,92.4,118.2,92.4,118.2,92.4c0.1-0.6,0.2-1.2,0.3-1.7
		c0,0,0-0.1,0-0.1c0.1-0.5,0.2-1.1,0.2-1.7c0-0.1,0-0.1,0-0.2c0.1-0.5,0.1-1,0.1-1.6c0-0.1,0-0.2,0-0.3c0-0.6,0.1-1.2,0.1-1.9
		s0-1.2-0.1-1.9c0-0.1,0-0.2,0-0.3c0-0.5-0.1-1.1-0.1-1.6c0-0.1,0-0.1,0-0.2c-0.1-0.6-0.1-1.1-0.2-1.7c0,0,0-0.1,0-0.1
		c-0.1-0.6-0.2-1.1-0.3-1.7c0,0,0,0,0,0c0,0,0,0,0,0c-1.4-6.4-4.7-12.2-9.1-16.7c-1.6-1.6-3.4-3.1-5.4-4.4c0,0-0.1-0.1-0.1-0.1
		c-0.5-0.3-0.9-0.6-1.4-0.9c0,0-0.1,0-0.1,0c0,0-0.1,0-0.1-0.1c-0.5-0.3-1-0.6-1.5-0.8c0,0,0,0-0.1,0C95.7,52.3,90.5,51,85,51
		c-9.4,0-17.9,3.8-24,10c-4.5,4.5-7.7,10.2-9.1,16.7c0,0,0,0,0,0c0,0,0,0,0,0c-0.1,0.6-0.2,1.1-0.3,1.7c0,0,0,0.1,0,0.1
		c-0.1,0.6-0.2,1.1-0.2,1.7c0,0.1,0,0.1,0,0.2c-0.1,0.5-0.1,1.1-0.1,1.6c0,0.1,0,0.2,0,0.3c0,0.6-0.1,1.2-0.1,1.9
		c0,0.6,0,1.2,0.1,1.9c0,0.1,0,0.2,0,0.3c0,0.5,0.1,1.1,0.1,1.6c0,0.1,0,0.1,0,0.2c0.1,0.6,0.1,1.1,0.2,1.7c0,0,0,0.1,0,0.1
		c0.1,0.6,0.2,1.1,0.3,1.7c0,0,0,0,0,0c0,0,0,0,0,0c1.4,6.4,4.7,12.2,9.1,16.7c0.3,0.3,0.7,0.7,1,1c0,0,0,0,0,0c0,0,0,0,0,0
		c0.9,0.8,1.8,1.5,2.7,2.3c0.1,0.1,0.2,0.1,0.3,0.2c0.4,0.3,0.8,0.6,1.2,0.8c0.1,0.1,0.3,0.2,0.4,0.3c0.4,0.2,0.8,0.5,1.1,0.7
		c0.1,0,0.1,0.1,0.2,0.1c0.1,0,0.2,0.1,0.2,0.1c0.4,0.2,0.8,0.5,1.2,0.7c0.1,0.1,0.2,0.1,0.3,0.2c0.5,0.2,1,0.5,1.5,0.7
		c0,0,0.1,0,0.1,0.1c4.2,1.8,8.8,2.8,13.6,2.8c4.2,0,8.2-0.8,11.9-2.2c0,0,0.1,0,0.1,0c0.5-0.2,1-0.4,1.5-0.6
		c0.1-0.1,0.3-0.1,0.4-0.2c0.4-0.2,0.8-0.4,1.2-0.6c0.2-0.1,0.4-0.2,0.6-0.3c0.3-0.2,0.6-0.3,1-0.5c0.1-0.1,0.2-0.1,0.4-0.2
		c0.1-0.1,0.2-0.1,0.3-0.2c0.3-0.2,0.6-0.3,0.8-0.5c0.2-0.1,0.5-0.3,0.7-0.4c0.3-0.2,0.5-0.3,0.7-0.5c0.2-0.2,0.5-0.3,0.7-0.5
		c0.2-0.2,0.4-0.3,0.6-0.5c0.7-0.6,1.4-1.1,2.1-1.7c0,0,0.1-0.1,0.1-0.1c0.3-0.3,0.6-0.6,0.9-0.9C113.5,104.6,116.8,98.8,118.2,92.4
		z M80,110.5c0-1.4-0.8-2.7-2-3.4l-8.7-5c-1.2-0.7-2.7-0.7-3.9,0c-2.2-2.5-3.9-5.5-5-8.7c1.2-0.7,1.9-2,1.9-3.4V80
		c0-1.4-0.7-2.7-1.9-3.4c1.1-3.2,2.8-6.2,5-8.7c1.2,0.7,2.7,0.7,3.9,0l8.7-5c1.2-0.7,2-2,2-3.4c1.6-0.3,3.3-0.5,5-0.5
		c1.7,0,3.4,0.2,5,0.5c0,1.4,0.8,2.7,2,3.4l8.7,5c1.2,0.7,2.7,0.7,3.9,0c2.2,2.5,3.9,5.4,5,8.7c-1.2,0.7-1.9,2-1.9,3.4v10
		c0,1.4,0.7,2.7,1.9,3.4c-1.1,3.2-2.8,6.2-5,8.7c-1.2-0.7-2.7-0.6-3.9,0l-8.7,5c-1.2,0.7-2,2-2,3.4c-1.6,0.3-3.3,0.5-5,0.5
		C83.3,111,81.6,110.8,80,110.5z"/>
</g>
    <path fill="#407DF4" d="M160,85h8c0-11.4-2.3-22.4-6.5-32.3c-6.3-14.9-16.8-27.6-30.1-36.5C118.2,7.2,102.2,2,85,2
	C73.6,2,62.6,4.3,52.7,8.5c-14.9,6.3-27.6,16.8-36.5,30.1C7.2,51.8,2,67.8,2,85c0,11.4,2.3,22.4,6.5,32.3
	c6.3,14.9,16.8,27.6,30.1,36.5C51.8,162.8,67.8,168,85,168c11.4,0,22.4-2.3,32.3-6.5c14.9-6.3,27.6-16.8,36.5-30.1
	c8.9-13.2,14.2-29.2,14.2-46.4H160h-8c0,9.3-1.9,18.1-5.3,26.1c-5.1,12-13.6,22.3-24.3,29.5C111.8,147.8,98.9,152,85,152
	c-9.3,0-18.1-1.9-26.1-5.3c-12-5.1-22.3-13.6-29.5-24.3C22.2,111.8,18,98.9,18,85c0-9.3,1.9-18.1,5.3-26.1
	c5.1-12,13.6-22.3,24.3-29.5C58.3,22.2,71.1,18,85,18c9.3,0,18.1,1.9,26.1,5.3c12,5.1,22.3,13.6,29.5,24.3
	C147.8,58.2,152,71.1,152,85H160z"/>
</svg>
