<?xml version="1.0" encoding="utf-8"?>
<!-- Generator: Adobe Illustrator 18.0.0, SVG Export Plug-In . SVG Version: 6.00 Build 0)  -->
<!DOCTYPE svg PUBLIC "-//W3C//DTD SVG 1.1//EN" "http://www.w3.org/Graphics/SVG/1.1/DTD/svg11.dtd">
<svg version="1.1" id="Layer_1" xmlns="http://www.w3.org/2000/svg" x="0px" y="0px"
     viewBox="0 0 170 170" enable-background="new 0 0 170 170" xml:space="preserve">
<circle fill="#FFFFFF" cx="84.5" cy="85" r="75"/>
    <g>
	<path fill="#407DF4" d="M85,93h-5.9l-4.7-54H85c2.2,0,4-1.8,4-4c0-2.2-1.8-4-4-4H70c-1.1,0-2.2,0.5-2.9,1.3c-0.8,0.8-1.1,1.9-1,3
		l5.4,62c0.2,2.1,1.9,3.7,4,3.7H85c2.2,0,4-1.8,4-4C89,94.8,87.2,93,85,93z"/>
        <path fill="#407DF4" d="M85,114c2.2,0,4-1.8,4-4c0-2.2-1.8-4-4-4c-4.5,0-8.7,1.9-11.7,4.8c-3,3-4.8,7.1-4.8,11.7
		c0,4.5,1.9,8.7,4.8,11.7c3,3,7.1,4.8,11.7,4.8c2.2,0,4-1.8,4-4c0-2.2-1.8-4-4-4c-2.4,0-4.5-0.9-6-2.5c-1.5-1.6-2.5-3.7-2.5-6
		c0-2.4,0.9-4.5,2.5-6C80.5,114.9,82.6,114,85,114z"/>
</g>
    <path fill="#407DF4" d="M160,85h8c0-11.4-2.3-22.4-6.5-32.3c-6.3-14.9-16.8-27.6-30.1-36.5C118.2,7.2,102.2,2,85,2
	C73.6,2,62.6,4.3,52.7,8.5c-14.9,6.3-27.6,16.8-36.5,30.1C7.2,51.8,2,67.8,2,85c0,11.4,2.3,22.4,6.5,32.3
	c6.3,14.9,16.8,27.6,30.1,36.5C51.8,162.8,67.8,168,85,168c11.4,0,22.4-2.3,32.3-6.5c14.9-6.3,27.6-16.8,36.5-30.1
	c8.9-13.2,14.2-29.2,14.2-46.4H160h-8c0,9.3-1.9,18.1-5.3,26.1c-5.1,12-13.6,22.3-24.3,29.5C111.8,147.8,98.9,152,85,152
	c-9.3,0-18.1-1.9-26.1-5.3c-12-5.1-22.3-13.6-29.5-24.3C22.2,111.8,18,98.9,18,85c0-9.3,1.9-18.1,5.3-26.1
	c5.1-12,13.6-22.3,24.3-29.5C58.2,22.2,71.1,18,85,18c9.3,0,18.1,1.9,26.1,5.3c12,5.1,22.3,13.6,29.5,24.3
	C147.8,58.2,152,71.1,152,85H160z"/>
</svg>
