<?xml version="1.0" encoding="utf-8"?>
<!-- Generator: Adobe Illustrator 18.0.0, SVG Export Plug-In . SVG Version: 6.00 Build 0)  -->
<!DOCTYPE svg PUBLIC "-//W3C//DTD SVG 1.1//EN" "http://www.w3.org/Graphics/SVG/1.1/DTD/svg11.dtd">
<svg version="1.1" id="Layer_1" xmlns="http://www.w3.org/2000/svg" x="0px" y="0px"
     viewBox="0 0 170 170" enable-background="new 0 0 170 170" xml:space="preserve">
<circle fill="#FFFFFF" cx="84.1" cy="85" r="75"/>
    <g>
	<path fill="#407DF4" d="M85.6,51.7L85.6,51.7L85.6,51.7c0.7,0.4,1.5,0.7,2.3,1c0.1,0,0.1,0,0.2,0.1c0.3,0.1,0.6,0.1,1,0.2
		c0.1,0,0.2,0,0.3,0c0.4,0,0.8,0.1,1.2,0.1c0.4,0,0.9,0,1.3-0.1c0.1,0,0.2,0,0.3,0c0.4-0.1,0.8-0.1,1.1-0.2c0,0,0.1,0,0.1,0
		c0.9-0.3,1.7-0.6,2.4-1.1l0,0l0,0c2.8-1.8,4.8-4.9,4.8-8.5c0-5.5-4.5-10-10-10s-10,4.5-10,10C80.6,46.8,82.7,50,85.6,51.7z"/>
        <path fill="#407DF4" d="M119.8,61.8l-11-8.4c-0.9-0.7-1.9-0.9-2.9-0.8c-1,1.5-2.1,2.9-3.5,4.1c0,0,0,0,0,0
		c-2.6,2.3-5.9,3.8-9.4,4.3l0,0c-0.8,0.1-1.5,0.2-2.3,0.2c-0.5,0-1,0-1.5-0.1c-0.2,0-0.3,0-0.5-0.1c-0.3,0-0.7-0.1-1-0.1
		c-0.2,0-0.3-0.1-0.5-0.1c-0.4-0.1-0.9-0.2-1.3-0.3c0,0-0.1,0-0.1,0c-0.5-0.1-1-0.3-1.5-0.5L77.5,71l-14.8,5.9
		c-2.1,0.8-3.1,3.1-2.2,5.2c0.8,2.1,3.1,3.1,5.2,2.2h0l16-6.4c0.8-0.3,1.5-0.9,1.9-1.6l2.1-3.4v21l-10.8,10.9
		c-0.4,0.4-0.7,0.8-0.9,1.3l-0.3,0.7c-0.4-0.5-0.8-1-1.2-1.4c-2.5-2.5-6-4.1-9.9-4.1c-3.9,0-7.4,1.6-9.9,4.1c-2.5,2.5-4.1,6-4.1,9.9
		c0,3.9,1.6,7.4,4.1,9.9c2.5,2.5,6,4.1,9.9,4.1c0.7,0,1.5-0.1,2.2-0.2c-0.2,1.8,0.7,3.5,2.4,4.2c2,0.8,4.4-0.1,5.2-2.2l8.7-21.3
		l13.2-13.3h2.6l-2.1,16.2c-0.1,0.9,0.1,1.8,0.5,2.6l11.8,19.6c1.1,1.9,3.6,2.5,5.5,1.4c1.9-1.1,2.5-3.6,1.4-5.5l-11-18.4l2.5-19.6
		c0.1-0.4,0.2-0.8,0.2-1.3V61l7.2,5.5l-3.9,14c-0.6,2.1,0.7,4.3,2.8,4.9c2.1,0.6,4.3-0.7,4.9-2.8l4.6-16.6
		C121.7,64.4,121.1,62.7,119.8,61.8z M58.4,119.6c-1.1-1.1-1.8-2.6-1.8-4.2c0-1.7,0.7-3.1,1.8-4.2c1.1-1.1,2.6-1.8,4.2-1.8
		c1.7,0,3.1,0.7,4.2,1.8c1.1,1.1,1.8,2.6,1.8,4.2c0,1.7-0.7,3.1-1.8,4.2c-1.1,1.1-2.6,1.8-4.2,1.8C60.9,121.3,59.4,120.6,58.4,119.6
		z"/>
</g>
    <path fill="#407DF4" d="M160,85h8c0-11.4-2.3-22.4-6.5-32.3c-6.3-14.9-16.8-27.6-30.1-36.5C118.2,7.2,102.2,2,85,2
	C73.6,2,62.6,4.3,52.7,8.5c-14.9,6.3-27.6,16.8-36.5,30.1C7.2,51.8,2,67.8,2,85c0,11.4,2.3,22.4,6.5,32.3
	c6.3,14.9,16.8,27.6,30.1,36.5C51.8,162.8,67.8,168,85,168c11.4,0,22.4-2.3,32.3-6.5c14.9-6.3,27.6-16.8,36.5-30.1
	c8.9-13.2,14.2-29.2,14.2-46.4H160h-8c0,9.3-1.9,18.1-5.3,26.1c-5.1,12-13.6,22.3-24.3,29.5C111.8,147.8,98.9,152,85,152
	c-9.3,0-18.1-1.9-26.1-5.3c-12-5.1-22.3-13.6-29.5-24.3C22.2,111.8,18,98.9,18,85c0-9.3,1.9-18.1,5.3-26.1
	c5.1-12,13.6-22.3,24.3-29.5C58.2,22.2,71.1,18,85,18c9.3,0,18.1,1.9,26.1,5.3c12,5.1,22.3,13.6,29.5,24.3
	C147.8,58.2,152,71.1,152,85H160z"/>
</svg>
