<?xml version="1.0" encoding="utf-8"?>
<!-- Generator: Adobe Illustrator 18.0.0, SVG Export Plug-In . SVG Version: 6.00 Build 0)  -->
<!DOCTYPE svg PUBLIC "-//W3C//DTD SVG 1.1//EN" "http://www.w3.org/Graphics/SVG/1.1/DTD/svg11.dtd">
<svg version="1.1" id="Layer_1" xmlns="http://www.w3.org/2000/svg" xmlns:xlink="http://www.w3.org/1999/xlink" x="0px" y="0px"
	 viewBox="0 0 170 170" enable-background="new 0 0 170 170" xml:space="preserve">
<circle fill="#FFFFFF" cx="84.1" cy="85" r="75"/>
<path fill="#407DF4" d="M57.4,85c0-2.2-1.8-4-4-4h-15c-2.2,0-4,1.8-4,4c0,2.2,1.8,4,4,4h15C55.6,89,57.4,87.2,57.4,85z"/>
<path fill="#407DF4" d="M62.4,100c0-2.2-1.8-4-4-4h-10c-2.2,0-4,1.8-4,4c0,2.2,1.8,4,4,4h10C60.6,104,62.4,102.2,62.4,100z"/>
<path fill="#407DF4" d="M48.4,74h10c2.2,0,4-1.8,4-4c0-2.2-1.8-4-4-4h-10c-2.2,0-4,1.8-4,4C44.4,72.2,46.2,74,48.4,74z"/>
<path fill="#407DF4" d="M129.6,108.3c3.5-6.5,5.6-13.7,5.9-21.3c0-0.7,0.1-1.3,0.1-2c0-0.7,0-1.4-0.1-2c-0.3-7.5-2.4-14.8-5.9-21.3
	c-5.8-10.7-15.2-19.6-27-25.8c-8.3-4.4-17.8-7.5-28-8.9c-2.4,0.4-4.8,1-7.2,1.7c-3.2,1-6.2,2.2-9.1,3.7c0.7,1,1.9,1.6,3.2,1.6
	c4.8,0,9.3,1.3,13.6,3.8c2.7,1.5,5.2,3.6,7.5,6C76,42.6,68.9,42,61.6,42c-2.2,0-4,1.8-4,4c0,2.2,1.8,4,4,4c9.9,0,19.3,1.2,27.7,3.3
	c-4.4,1.7-8.4,4.3-11.7,7.7c-6.1,6.1-10,14.7-10,24c0,9.4,3.8,17.9,10,24c3.3,3.3,7.3,5.9,11.7,7.6c-8.4,2.1-17.8,3.3-27.7,3.3
	c-2.2,0-4,1.8-4,4c0,2.2,1.8,4,4,4c7.3,0,14.4-0.6,21.1-1.7c-2.3,2.4-4.9,4.4-7.5,6c-4.2,2.5-8.8,3.8-13.6,3.8
	c-1.3,0-2.5,0.7-3.2,1.6c1.2,0.6,2.4,1.2,3.7,1.7c4,1.7,8.2,2.9,12.6,3.7c15-2.1,28.4-7.8,38.9-16
	C120.3,121.8,125.8,115.4,129.6,108.3z M122.9,72.2c1.6,2.1,2.7,4.2,3.5,6.3c0.8,2.1,1.2,4.3,1.2,6.5c0,2.2-0.4,4.4-1.2,6.5
	c-1.4,3.7-3.9,7.4-7.7,10.8c-3.3,3-7.5,5.8-12.4,8.3c-1.5,0.3-3.1,0.4-4.7,0.4c-0.2,0-0.3,0-0.5,0c1.1-2.9,1.9-5.9,2.6-9h5.3
	c1.4,0,2.7-0.8,3.5-2l7.5-13c0.7-1.2,0.7-2.8,0-4l-7.5-13c-0.7-1.2-2-2-3.5-2h-5.3c-0.7-3.1-1.6-6.1-2.6-9c0.2,0,0.3,0,0.5,0
	c1.6,0,3.2,0.2,4.7,0.4c1,0.5,1.9,1,2.8,1.5C115.1,64.2,119.8,68.1,122.9,72.2z M105.1,76h1.7l5.2,9l-5.2,9h-1.7
	c0.3-2.9,0.5-5.9,0.5-9C105.6,81.9,105.4,78.9,105.1,76z M88.7,38.5c7.5,2.6,14.2,6.3,19.9,10.7c1.5,1.2,2.9,2.4,4.2,3.7
	c-1.3-0.5-2.6-0.8-3.9-1.1c-3.5-1.7-7.3-3.2-11.3-4.4c-0.9-0.3-1.8-0.5-2.6-0.8c-0.6-1-1.2-1.9-1.9-2.8
	C91.7,41.9,90.3,40.2,88.7,38.5z M97.6,85c0,3.1-0.2,6.1-0.6,9h-0.6l-5.2-9l5.2-9H97C97.3,78.9,97.6,81.9,97.6,85z M83.2,103.4
	c-4.7-4.7-7.6-11.2-7.6-18.4c0-7.2,2.9-13.7,7.6-18.4c2.8-2.8,6.1-4.9,9.9-6.2c0.9,2.4,1.8,4.9,2.4,7.6h-1.4c-1.4,0-2.7,0.8-3.5,2
	l-7.5,13c-0.7,1.2-0.7,2.8,0,4l7.5,13c0.7,1.2,2,2,3.5,2h1.4c-0.7,2.6-1.5,5.2-2.4,7.6C89.3,108.3,85.9,106.1,83.2,103.4z
	 M98.8,127.1c-3.2,1.7-6.5,3.2-10.1,4.4c2.3-2.4,4.4-5.1,6.2-8c4.9-1.4,9.6-3.2,13.8-5.2c1.4-0.3,2.7-0.7,4-1.1
	C108.8,120.9,104.1,124.3,98.8,127.1z"/>
<path fill="#407DF4" d="M160,85h8c0-11.4-2.3-22.4-6.5-32.3c-6.3-14.9-16.8-27.6-30.1-36.5C118.2,7.2,102.2,2,85,2
	C73.6,2,62.6,4.3,52.7,8.5c-14.9,6.3-27.6,16.8-36.5,30.1C7.2,51.8,2,67.8,2,85c0,11.4,2.3,22.4,6.5,32.3
	c6.3,14.9,16.8,27.6,30.1,36.5C51.8,162.8,67.8,168,85,168c11.4,0,22.4-2.3,32.3-6.5c14.9-6.3,27.6-16.8,36.5-30.1
	c8.9-13.2,14.2-29.2,14.2-46.4H160h-8c0,9.3-1.9,18.1-5.3,26.1c-5.1,12-13.6,22.3-24.3,29.5C111.8,147.8,98.9,152,85,152
	c-9.3,0-18.1-1.9-26.1-5.3c-12-5.1-22.3-13.6-29.5-24.3C22.2,111.8,18,98.9,18,85c0-9.3,1.9-18.1,5.3-26.1
	c5.1-12,13.6-22.3,24.3-29.5C58.2,22.2,71.1,18,85,18c9.3,0,18.1,1.9,26.1,5.3c12,5.1,22.3,13.6,29.5,24.3
	C147.8,58.2,152,71.1,152,85H160z"/>
</svg>
