<?xml version="1.0" encoding="utf-8"?>
<!-- Generator: Adobe Illustrator 18.0.0, SVG Export Plug-In . SVG Version: 6.00 Build 0)  -->
<!DOCTYPE svg PUBLIC "-//W3C//DTD SVG 1.1//EN" "http://www.w3.org/Graphics/SVG/1.1/DTD/svg11.dtd">
<svg version="1.1" id="Layer_1" xmlns="http://www.w3.org/2000/svg" xmlns:xlink="http://www.w3.org/1999/xlink" x="0px" y="0px"
	 viewBox="0 0 170 170" enable-background="new 0 0 170 170" xml:space="preserve">
<circle fill="#FFFFFF" cx="84.1" cy="85" r="75"/>
<g>
	<path fill="#407DF4" d="M84.9,48.5c0.5,0,1.1,0,1.6-0.1c5.4-0.9,9.1-6,8.2-11.5c-0.8-4.9-5-8.4-9.9-8.4c-0.5,0-1.1,0-1.6,0.1
		c-5.4,0.9-9.1,6-8.2,11.5C75.9,45,80.1,48.5,84.9,48.5z"/>
	<path fill="#407DF4" d="M112.2,70.9c0.1-0.1,0.1-0.2,0.2-0.3c0-0.1,0.1-0.2,0.1-0.4c0-0.1,0.1-0.2,0.1-0.4c0-0.1,0-0.3,0.1-0.4
		c0-0.1,0-0.3,0-0.4c0-0.1,0-0.3,0-0.4c0-0.1,0-0.3-0.1-0.4c0-0.1-0.1-0.3-0.1-0.4c0-0.1-0.1-0.2-0.1-0.4c-0.1-0.1-0.1-0.3-0.2-0.4
		c0-0.1,0-0.1-0.1-0.2c0-0.1-0.1-0.1-0.1-0.2s-0.1-0.1-0.1-0.2l-10.6-14.2c-0.8-1.1-2-1.6-3.2-1.6c-1.1,1.2-2.4,2.3-3.9,3.1
		c0,0,0,0,0,0c-1.9,1.1-4,1.9-6.3,2.3c-1,0.2-2,0.2-2.9,0.2c-1.2,0-2.5-0.1-3.6-0.4c0,0,0,0,0,0c-0.8-0.2-1.5-0.4-2.3-0.6
		c-0.1,0-0.2-0.1-0.2-0.1c-0.3-0.1-0.6-0.2-0.8-0.3c-0.1-0.1-0.2-0.1-0.4-0.2c-0.2-0.1-0.5-0.2-0.7-0.3c-0.1-0.1-0.3-0.1-0.4-0.2
		c-1.3-0.7-2.6-1.6-3.7-2.6l-8.2,4.8c-0.8,0.5-1.5,1.3-1.8,2.2l-5.3,16.1c-0.7,2.1,0.5,4.4,2.6,5s4.4-0.5,5-2.6L70,62.7l7-4.1
		l4.9,29.9l-6.5,14.5c-0.1,0.3-0.2,0.6-0.3,0.9l-1.7,9.6c-0.3,0-0.6,0-1,0c-3.9,0-7.4,1.6-9.9,4.1c-2.5,2.5-4.1,6-4.1,9.9
		c0,3.9,1.6,7.4,4.1,9.9c2.5,2.5,6,4.1,9.9,4.1c3.9,0,7.4-1.6,9.9-4.1c2.5-2.5,4.1-6,4.1-9.9c0-3.9-1.6-7.4-4.1-9.9
		c-0.4-0.4-0.9-0.8-1.3-1.2l1.9-10.6l6.7-15.1l4.3-0.7l2.5,16.4l-7.8,5.9c-1.8,1.3-2.1,3.8-0.8,5.6c1.3,1.8,3.8,2.1,5.6,0.8l9.7-7.3
		c1.2-0.9,1.8-2.3,1.5-3.8l-3.2-20.4c-0.1-0.5-0.2-0.9-0.4-1.3c0.2-0.7,0.3-1.5,0.2-2.3l0-0.9l-4.2,2.5c-0.2,0.1-0.5,0.3-0.7,0.4
		c0,0-0.1,0-0.1,0c-0.2,0.1-0.4,0.2-0.7,0.3c0,0,0,0,0,0c-0.5,0.2-1,0.3-1.6,0.3c-1,0.1-2,0.1-3-0.2v0c-0.4-0.1-0.8-0.2-1.2-0.4
		c-0.1,0-0.1,0-0.2-0.1c-0.2-0.1-0.3-0.2-0.5-0.3c0,0-0.1,0-0.1-0.1c-0.2-0.1-0.3-0.2-0.5-0.3c0,0-0.1,0-0.1-0.1
		c-0.2-0.1-0.4-0.3-0.5-0.4c0,0,0,0,0,0c-0.2-0.1-0.3-0.3-0.5-0.5c0,0,0,0,0,0c-0.2-0.2-0.3-0.3-0.5-0.5c0,0,0,0,0,0
		c-0.2-0.2-0.3-0.4-0.4-0.6c-0.1-0.1-0.2-0.3-0.3-0.4c-2.3-3.8-1-8.7,2.8-11l11.5-6.8l2.4,3.2l-11.9,7.1c-1.9,1.1-2.5,3.6-1.4,5.5
		s3.6,2.5,5.5,1.4l15.7-9.3c0.1,0,0.1-0.1,0.2-0.1c0.1,0,0.1-0.1,0.2-0.1c0.1,0,0.1-0.1,0.1-0.1c0.1-0.1,0.2-0.2,0.3-0.3
		c0.1-0.1,0.2-0.2,0.3-0.3c0.1-0.1,0.2-0.2,0.2-0.3C112.1,71.1,112.1,71,112.2,70.9z M76.7,131.8c-1.1,1.1-2.6,1.8-4.2,1.8
		c-1.7,0-3.1-0.7-4.2-1.8c-1.1-1.1-1.8-2.6-1.8-4.2c0-1.7,0.7-3.1,1.8-4.2c1.1-1.1,2.6-1.8,4.2-1.8c1.7,0,3.1,0.7,4.2,1.8
		c1.1,1.1,1.8,2.6,1.8,4.2C78.4,129.2,77.8,130.7,76.7,131.8z"/>
</g>
<path fill="#407DF4" d="M160,85h8c0-11.4-2.3-22.4-6.5-32.3c-6.3-14.9-16.8-27.6-30.1-36.5C118.2,7.2,102.2,2,85,2
	C73.6,2,62.6,4.3,52.7,8.5c-14.9,6.3-27.6,16.8-36.5,30.1C7.2,51.8,2,67.8,2,85c0,11.4,2.3,22.4,6.5,32.3
	c6.3,14.9,16.8,27.6,30.1,36.5C51.8,162.8,67.8,168,85,168c11.4,0,22.4-2.3,32.3-6.5c14.9-6.3,27.6-16.8,36.5-30.1
	c8.9-13.2,14.2-29.2,14.2-46.4H160h-8c0,9.3-1.9,18.1-5.3,26.1c-5.1,12-13.6,22.3-24.3,29.5C111.8,147.8,98.9,152,85,152
	c-9.3,0-18.1-1.9-26.1-5.3c-12-5.1-22.3-13.6-29.5-24.3C22.2,111.8,18,98.9,18,85c0-9.3,1.9-18.1,5.3-26.1
	c5.1-12,13.6-22.3,24.3-29.5C58.2,22.2,71.1,18,85,18c9.3,0,18.1,1.9,26.1,5.3c12,5.1,22.3,13.6,29.5,24.3
	C147.8,58.2,152,71.1,152,85H160z"/>
</svg>
