<?xml version="1.0" encoding="utf-8"?>
<!-- Generator: Adobe Illustrator 18.0.0, SVG Export Plug-In . SVG Version: 6.00 Build 0)  -->
<!DOCTYPE svg PUBLIC "-//W3C//DTD SVG 1.1//EN" "http://www.w3.org/Graphics/SVG/1.1/DTD/svg11.dtd">
<svg version="1.1" id="Layer_1" xmlns="http://www.w3.org/2000/svg" xmlns:xlink="http://www.w3.org/1999/xlink" x="0px" y="0px"
	 viewBox="0 0 170 170" enable-background="new 0 0 170 170" xml:space="preserve">
<circle fill="#FFFFFF" cx="85" cy="85" r="75"/>
<path fill="#407DF4" d="M34.8,97.3c2.2-0.1,3.9-1.9,3.9-4.1l0,0l-0.4-13.8l5.8-6.5l10,24.7l-5.8,9.1c3.5-1.1,6.9-2,10.3-2.9
	c2.6-0.7,5.1-1.3,7.6-1.9l1-0.2c2.7-0.6,5.3-1.1,7.9-1.5l-0.7-5.6c0-0.1,0-0.2,0-0.3l0-0.3c-0.1-0.7-0.4-1.3-0.7-1.8l-9.2-22.7
	l6.4,1.8l10,13.9c1.3,1.8,3.8,2.2,5.6,0.9c1.8-1.3,2.2-3.8,0.9-5.6L76.3,65.3c-0.5-0.7-1.3-1.3-2.2-1.5l-10.2-2.9
	c-0.8,1-1.6,2-2.6,2.9c-0.1,0.1-0.2,0.2-0.3,0.3c-0.5,0.4-0.9,0.7-1.4,1.1c-0.1,0.1-0.2,0.2-0.3,0.2c-0.5,0.3-1.1,0.7-1.7,1
	c-0.4,0.2-0.8,0.4-1.3,0.6l0,0c-2.2,0.9-4.5,1.4-6.9,1.4c-0.6,0-1.1,0-1.6-0.1c0,0,0,0,0,0c-0.4,0-0.7-0.1-1.1-0.1c0,0,0,0,0,0
	c-0.3,0-0.6-0.1-1-0.2c0,0-0.1,0-0.1,0c-0.3-0.1-0.5-0.1-0.8-0.2c-0.1,0-0.2,0-0.3-0.1c-0.2-0.1-0.4-0.1-0.6-0.2
	c-0.1,0-0.3-0.1-0.4-0.1c-0.2-0.1-0.3-0.1-0.5-0.2c-0.2-0.1-0.4-0.1-0.5-0.2c-0.1-0.1-0.2-0.1-0.4-0.2c-0.2-0.1-0.4-0.2-0.6-0.3
	c-0.6-0.3-1.1-0.6-1.7-0.9l-8.6,9.8c-0.7,0.8-1,1.7-1,2.8l0.5,15.4C30.8,95.6,32.6,97.4,34.8,97.3z"/>
<path fill="#407DF4" d="M77.2,117.3l-0.2-1.4c-2.5,0.5-5.2,1-7.9,1.6l0.2,1.4c0,0.4,0.2,0.8,0.3,1.1l7.7,17.6c0.9,2,3.2,2.9,5.3,2.1
	c2-0.9,2.9-3.2,2.1-5.3L77.2,117.3z"/>
<path fill="#407DF4" d="M50.5,132.8l-0.2-10.1c-2.6,0.8-5.3,1.7-8,2.7l0,0.3C44.8,128.3,47.5,130.7,50.5,132.8z"/>
<path fill="#407DF4" d="M160,85h8c0-11.4-2.3-22.4-6.5-32.3c-6.3-14.9-16.8-27.6-30.1-36.5C118.2,7.2,102.2,2,85,2
	C73.6,2,62.6,4.3,52.7,8.5c-14.9,6.3-27.6,16.8-36.5,30.1C7.2,51.8,2,67.8,2,85c0,11.4,2.3,22.4,6.5,32.3
	c6.3,14.9,16.8,27.6,30.1,36.5C51.8,162.8,67.8,168,85,168c11.4,0,22.4-2.3,32.3-6.5c14.9-6.3,27.6-16.8,36.5-30.1
	c8.9-13.2,14.2-29.2,14.2-46.4H160h-8c0,9.3-1.9,18.1-5.3,26.1c-5.1,12-13.6,22.3-24.3,29.5C111.8,147.8,98.9,152,85,152
	c-9.3,0-18.1-1.9-26.1-5.3c-12-5.1-22.3-13.6-29.5-24.3C22.2,111.8,18,98.9,18,85c0-9.3,1.9-18.1,5.3-26.1
	c5.1-12,13.6-22.3,24.3-29.5C58.2,22.2,71.1,18,85,18c9.3,0,18.1,1.9,26.1,5.3c12,5.1,22.3,13.6,29.5,24.3
	C147.8,58.2,152,71.1,152,85H160z"/>
<path fill="#407DF4" d="M96.1,110c4.5,0,8.5,0.4,11.7,1.2c-0.1,0.5-0.1,1-0.1,1.5c0,3.9,1.6,7.4,4.1,9.9c2.5,2.5,6,4.1,9.9,4.1
	c2.4,0,4.6-0.6,6.6-1.7c2.6-2.9,5-6,7-9.3c0.2-1,0.3-2,0.3-3c0-3.9-1.6-7.4-4.1-9.9c-2.5-2.5-6-4.1-9.9-4.1c-3.9,0-7.4,1.6-9.9,4.1
	c-0.3,0.3-0.6,0.7-0.9,1c-0.4-0.1-0.7-0.2-1.1-0.3c-4.1-1-8.6-1.4-13.7-1.4c-11.3,0-25.1,2.3-40.4,6.6c-6.8,1.9-13.9,4.2-21.2,6.9
	c0.5,0.8,1,1.7,1.6,2.5c1,1.5,2.1,2.9,3.2,4.3c6.4-2.3,12.6-4.3,18.6-6C72.7,112.1,85.9,110,96.1,110z M117.5,108.4
	c1.1-1.1,2.6-1.8,4.2-1.8c1.7,0,3.1,0.7,4.2,1.8c1.1,1.1,1.8,2.6,1.8,4.2c0,1.7-0.7,3.1-1.8,4.2c-1.1,1.1-2.6,1.8-4.2,1.8
	c-1.7,0-3.1-0.7-4.2-1.8c-1.1-1.1-1.8-2.6-1.8-4.2C115.7,111,116.4,109.5,117.5,108.4z"/>
<path fill="#407DF4" d="M40.1,46.8c-0.9,2.5-0.9,5.4,0.4,8c1.8,3.5,5.3,5.5,8.9,5.5c1.5,0,3.1-0.3,4.5-1.1c4.9-2.5,6.9-8.5,4.4-13.4
	c-1.8-3.5-5.3-5.5-8.9-5.5c-1.2,0-2.5,0.2-3.7,0.7C43.7,42.8,41.8,44.7,40.1,46.8z"/>
</svg>
