<?xml version="1.0" encoding="utf-8"?>
<!-- Generator: Adobe Illustrator 18.0.0, SVG Export Plug-In . SVG Version: 6.00 Build 0)  -->
<!DOCTYPE svg PUBLIC "-//W3C//DTD SVG 1.1//EN" "http://www.w3.org/Graphics/SVG/1.1/DTD/svg11.dtd">
<svg version="1.1" id="Layer_1" xmlns="http://www.w3.org/2000/svg" xmlns:xlink="http://www.w3.org/1999/xlink" x="0px" y="0px"
	 viewBox="0 0 170 170" enable-background="new 0 0 170 170" xml:space="preserve">
<circle fill="#FFFFFF" cx="85" cy="85" r="75"/>
<path fill="#407DF4" d="M121.9,123.6l0-42.6c0-0.2,0-0.3-0.1-0.5c0-0.2,0.1-0.3,0.1-0.5h0v-22c0-3.2-1.3-6.1-3.4-8.1
	c-2.1-2.1-5-3.4-8.1-3.4c-1.2,0-2.4,0.2-3.5,0.5v-3c0-3.2-1.3-6.1-3.4-8.1c-2.1-2.1-5-3.4-8.1-3.4c-1.7,0-3.4,0.4-4.9,1.1
	c-0.5-1-1.2-1.9-2-2.7c-2.1-2.1-5-3.4-8.1-3.4c-3.2,0-6.1,1.3-8.1,3.4c-1.7,1.6-2.8,3.8-3.2,6.2c-1.2-0.4-2.4-0.6-3.7-0.6
	c-3.2,0-6.1,1.3-8.1,3.4c-2.1,2.1-3.4,5-3.4,8.1v12.8c-2.6,0.3-4.9,1.5-6.6,3.3c-2.1,2.1-3.4,5-3.4,8.1v32c0,5.9,2.4,11.3,6.3,15.2
	c3.3,3.3,7.6,5.5,12.4,6.1l5.9,14.5c0.8,2,3.2,3,5.2,2.2c2-0.8,3-3.2,2.2-5.2l-6.8-16.8c-0.6-1.5-2.1-2.5-3.7-2.5
	c-3.7,0-7.1-1.5-9.5-4c-2.4-2.5-4-5.8-4-9.5v-32c0-1,0.4-1.8,1-2.5c0.6-0.6,1.5-1,2.5-1c1,0,1.8,0.4,2.5,1c0.6,0.6,1,1.5,1,2.5v14.8
	c0,3.9,1.6,7.4,4.1,9.9c2.5,2.5,6,4.1,9.9,4.1h4.6c2.2,0,4-1.8,4-4c0-2.2-1.8-4-4-4h-4.6c-1.7,0-3.1-0.7-4.2-1.8
	c-1.1-1.1-1.8-2.6-1.8-4.2V72.1c0-3.2-1.3-6.1-3.4-8.1c-0.5-0.5-1-0.9-1.6-1.4l0-14.7c0-1,0.4-1.8,1-2.5c0.6-0.6,1.5-1,2.5-1
	c1,0,1.8,0.4,2.5,1c0.6,0.6,1,1.5,1,2.5v23v9c0,2.2,1.8,4,4,4c2.2,0,4-1.8,4-4h0v-9c0,0,0,0,0,0l0-32c0-1,0.4-1.8,1-2.5
	c0.6-0.6,1.5-1,2.5-1c1,0,1.8,0.4,2.5,1c0.6,0.6,1,1.5,1,2.5v5v27v5c0,2.2,1.8,4,4,4c2.2,0,4-1.8,4-4v-5v0l0-27c0-1,0.4-1.8,1-2.5
	c0.6-0.6,1.5-1,2.5-1c1,0,1.8,0.4,2.5,1c0.6,0.6,1,1.5,1,2.5v14v18v4c0,2.2,1.8,4,4,4c2.2,0,4-1.8,4-4v-4v0l0-18c0-1,0.4-1.8,1-2.5
	c0.6-0.6,1.5-1,2.5-1c1,0,1.8,0.4,2.5,1c0.6,0.6,1,1.5,1,2.5v22c0,0.2,0,0.3,0.1,0.5c0,0.2-0.1,0.3-0.1,0.5h0v43.5
	c0,0.6,0.1,1.1,0.3,1.6l3.5,8.1c0.1,0,0.1-0.1,0.2-0.1c2.2-1.5,4.3-3.1,6.3-4.9L121.9,123.6z"/>
<path fill="#407DF4" d="M160,85h8c0-11.4-2.3-22.4-6.5-32.3c-6.3-14.9-16.8-27.6-30.1-36.5C118.2,7.2,102.2,2,85,2
	C73.6,2,62.6,4.3,52.7,8.5c-14.9,6.3-27.6,16.8-36.5,30.1C7.2,51.8,2,67.8,2,85c0,11.4,2.3,22.4,6.5,32.3
	c6.3,14.9,16.8,27.6,30.1,36.5C51.8,162.8,67.8,168,85,168c11.4,0,22.4-2.3,32.3-6.5c14.9-6.3,27.6-16.8,36.5-30.1
	c8.9-13.2,14.2-29.2,14.2-46.4H160h-8c0,9.3-1.9,18.1-5.3,26.1c-5.1,12-13.6,22.3-24.3,29.5C111.8,147.8,98.9,152,85,152
	c-9.3,0-18.1-1.9-26.1-5.3c-12-5.1-22.3-13.6-29.5-24.3C22.2,111.8,18,98.9,18,85c0-9.3,1.9-18.1,5.3-26.1
	c5.1-12,13.6-22.3,24.3-29.5C58.2,22.2,71.1,18,85,18c9.3,0,18.1,1.9,26.1,5.3c12,5.1,22.3,13.6,29.5,24.3
	C147.8,58.2,152,71.1,152,85H160z"/>
</svg>
