<?xml version="1.0" encoding="utf-8"?>
<!-- Generator: Adobe Illustrator 18.0.0, SVG Export Plug-In . SVG Version: 6.00 Build 0)  -->
<!DOCTYPE svg PUBLIC "-//W3C//DTD SVG 1.1//EN" "http://www.w3.org/Graphics/SVG/1.1/DTD/svg11.dtd">
<svg version="1.1" id="Layer_1" xmlns="http://www.w3.org/2000/svg" xmlns:xlink="http://www.w3.org/1999/xlink" x="0px" y="0px"
	 viewBox="0 0 170 170" enable-background="new 0 0 170 170" xml:space="preserve">
<circle fill="#FFFFFF" cx="84.1" cy="85" r="75"/>
<path fill="#407DF4" d="M45.1,48.8l14.1,4.1c0.4,0.1,0.8,0.2,1.1,0.2h40.5c0,0,0,0,0,0v0h6h2.5c1,0,1.8,0.4,2.5,1
	c0.6,0.6,1,1.5,1,2.5c0,1-0.4,1.8-1,2.5c-0.6,0.6-1.5,1-2.5,1c-2.2,0-4,1.8-4,4c0,2.2,1.8,4,4,4c0.3,0,0.7,0,1-0.1
	c0.2,0,0.3,0.1,0.5,0.1v0h3.5c1,0,1.8,0.4,2.5,1c0.6,0.6,1,1.5,1,2.5c0,1-0.4,1.8-1,2.5c-0.6,0.6-1.5,1-2.5,1c-2.2,0-4,1.8-4,4
	c0,2.2,1.8,4,4,4c0.4,0,0.9,0,1.3-0.1c0.2,0,0.5,0.1,0.7,0.1v0c1,0,1.8,0.4,2.5,1c0.6,0.6,1,1.5,1,2.5c0,1-0.4,1.8-1,2.5
	c-0.6,0.6-1.5,1-2.5,1c-0.4,0-0.7,0.1-1.1,0.2c-0.6-0.1-1.3-0.2-1.9-0.2c-2.2,0-4,1.8-4,4c0,2.2,1.8,4,4,4c1,0,1.8,0.4,2.5,1
	c0.6,0.6,1,1.5,1,2.5c0,1-0.4,1.8-1,2.5c-0.6,0.6-1.5,1-2.5,1H90.6c-1.1,0-2.1,0.4-2.8,1.2c-0.7,0.7-1.2,1.8-1.2,2.8v20.5
	c0,1-0.4,1.8-1,2.5c-0.6,0.6-1.5,1-2.5,1c-1,0-1.8-0.4-2.5-1c-0.6-0.6-1-1.5-1-2.5V119c0-10.3-6.6-19.5-16.4-22.8
	c-0.2-0.1-0.3-0.1-0.5-0.1l-15.7-3.3c-2.2-0.4-4.3,0.9-4.7,3.1c-0.4,2.2,0.9,4.3,3.1,4.7h0l15.4,3.2c6.4,2.2,10.8,8.3,10.7,15.1
	v10.6c0,3.2,1.3,6.1,3.4,8.1c2.1,2.1,5,3.4,8.1,3.4c3.2,0,6.1-1.3,8.1-3.4c2.1-2.1,3.4-5,3.4-8.1v-16.5h18.7c3.2,0,6.1-1.3,8.1-3.4
	c2.1-2.1,3.4-5,3.4-8.1h0c0-2.1-0.6-4.1-1.6-5.8c0.4-0.3,0.8-0.7,1.2-1c2.1-2.1,3.4-5,3.4-8.1h0c0-3.2-1.3-6.1-3.4-8.1
	c-0.2-0.2-0.4-0.3-0.6-0.5c1.2-1.8,1.9-4,1.9-6.4h0c0-3.2-1.3-6.1-3.4-8.1c-0.8-0.8-1.7-1.5-2.7-2c0.7-1.5,1.1-3.1,1.1-4.9h0
	c0-3.2-1.3-6.1-3.4-8.1c-2.1-2.1-5-3.4-8.1-3.4h-2.5h-6H60.9l-13.6-4c-0.5-0.2-1.1-0.2-1.6-0.1c-1.2,1.1-2.4,2.2-3.5,3.4
	C42,46.3,43.1,48.2,45.1,48.8z"/>
<path fill="#407DF4" d="M160,85h8c0-11.4-2.3-22.4-6.5-32.3c-6.3-14.9-16.8-27.6-30.1-36.5C118.2,7.2,102.2,2,85,2
	C73.6,2,62.6,4.3,52.7,8.5c-14.9,6.3-27.6,16.8-36.5,30.1C7.2,51.8,2,67.8,2,85c0,11.4,2.3,22.4,6.5,32.3
	c6.3,14.9,16.8,27.6,30.1,36.5C51.8,162.8,67.8,168,85,168c11.4,0,22.4-2.3,32.3-6.5c14.9-6.3,27.6-16.8,36.5-30.1
	c8.9-13.2,14.2-29.2,14.2-46.4H160h-8c0,9.3-1.9,18.1-5.3,26.1c-5.1,12-13.6,22.3-24.3,29.5C111.8,147.8,98.9,152,85,152
	c-9.3,0-18.1-1.9-26.1-5.3c-12-5.1-22.3-13.6-29.5-24.3C22.2,111.8,18,98.9,18,85c0-9.3,1.9-18.1,5.3-26.1
	c5.1-12,13.6-22.3,24.3-29.5C58.2,22.2,71.1,18,85,18c9.3,0,18.1,1.9,26.1,5.3c12,5.1,22.3,13.6,29.5,24.3
	C147.8,58.2,152,71.1,152,85H160z"/>
</svg>
