<?xml version="1.0" encoding="utf-8"?>
<!-- Generator: Adobe Illustrator 18.0.0, SVG Export Plug-In . SVG Version: 6.00 Build 0)  -->
<!DOCTYPE svg PUBLIC "-//W3C//DTD SVG 1.1//EN" "http://www.w3.org/Graphics/SVG/1.1/DTD/svg11.dtd">
<svg version="1.1" id="Layer_1" xmlns="http://www.w3.org/2000/svg" xmlns:xlink="http://www.w3.org/1999/xlink" x="0px" y="0px"
	 viewBox="0 0 170 170" enable-background="new 0 0 170 170" xml:space="preserve">
<circle fill="#FFFFFF" cx="85" cy="85" r="75"/>
<g>
	<path fill="#407DF4" d="M118.9,90.4c0-0.5-0.1-1.1-0.1-1.6c0-0.1,0-0.1,0-0.2c-0.1-0.6-0.1-1.1-0.2-1.7c0,0,0-0.1,0-0.1
		c-0.1-0.6-0.2-1.1-0.3-1.7c0,0,0,0,0,0c0,0,0,0,0,0c-0.6-2.9-1.7-5.7-3-8.2c-0.7,0.6-1.5,1.1-2.3,1.6c-1.4,0.9-3,1.7-4.6,2.5
		c0.5,1,0.9,2,1.3,3.1c-1.2,0.7-1.9,2-1.9,3.4v10c0,1.4,0.7,2.7,1.9,3.4c-1.1,3.2-2.8,6.2-5,8.7c-1.2-0.7-2.7-0.6-3.9,0l-8.7,5
		c-1.2,0.7-2,2-2,3.4c-1.6,0.3-3.3,0.5-5,0.5c-1.7,0-3.4-0.2-5-0.5c0-1.4-0.8-2.7-2-3.4l-8.7-5c-1.2-0.7-2.7-0.7-3.9,0
		c-2.2-2.5-3.9-5.5-5-8.7c1.2-0.7,1.9-2,1.9-3.4v-10c0-1.4-0.7-2.7-1.9-3.4c0.4-1.1,0.8-2.1,1.3-3.1c-1.6-0.7-3-1.5-4.5-2.4
		c-0.8-0.5-1.6-1.1-2.4-1.7c-1.3,2.6-2.4,5.3-3,8.2c0,0,0,0,0,0c0,0,0,0,0,0c-0.1,0.6-0.2,1.1-0.3,1.7c0,0,0,0.1,0,0.1
		c-0.1,0.6-0.2,1.1-0.2,1.7c0,0.1,0,0.1,0,0.2c-0.1,0.5-0.1,1.1-0.1,1.6c0,0.1,0,0.2,0,0.3c0,0.6-0.1,1.2-0.1,1.9s0,1.2,0.1,1.9
		c0,0.1,0,0.2,0,0.3c0,0.5,0.1,1.1,0.1,1.6c0,0.1,0,0.1,0,0.2c0.1,0.6,0.1,1.1,0.2,1.7c0,0,0,0.1,0,0.1c0.1,0.6,0.2,1.1,0.3,1.7
		c0,0,0,0,0,0c0,0,0,0,0,0c1.4,6.4,4.7,12.2,9.1,16.7c0.3,0.3,0.7,0.7,1,1c0,0,0,0,0,0c0,0,0,0,0,0c0.9,0.8,1.8,1.6,2.7,2.3
		c0.1,0.1,0.2,0.1,0.3,0.2c0.4,0.3,0.8,0.6,1.2,0.8c0.1,0.1,0.3,0.2,0.4,0.3c0.4,0.2,0.8,0.5,1.1,0.7c0.1,0,0.1,0.1,0.2,0.1
		c0.1,0,0.2,0.1,0.2,0.1c0.4,0.2,0.8,0.5,1.2,0.7c0.1,0.1,0.2,0.1,0.3,0.2c0.5,0.2,1,0.5,1.5,0.7c0,0,0.1,0,0.1,0.1
		c4.2,1.8,8.8,2.8,13.6,2.8c4.2,0,8.2-0.8,11.9-2.2c0,0,0.1,0,0.1,0c0.5-0.2,1-0.4,1.5-0.6c0.1-0.1,0.3-0.1,0.4-0.2
		c0.4-0.2,0.8-0.4,1.2-0.6c0.2-0.1,0.4-0.2,0.6-0.3c0.3-0.2,0.6-0.3,1-0.5c0.1-0.1,0.2-0.1,0.4-0.2c0.1-0.1,0.2-0.1,0.3-0.2
		c0.3-0.2,0.6-0.3,0.8-0.5c0.2-0.1,0.5-0.3,0.7-0.4c0.3-0.2,0.5-0.3,0.7-0.5c0.2-0.2,0.5-0.3,0.7-0.5c0.2-0.2,0.4-0.3,0.6-0.5
		c0.7-0.6,1.4-1.1,2.1-1.7c0,0,0.1-0.1,0.1-0.1c0.3-0.3,0.6-0.6,0.9-0.9c4.5-4.5,7.7-10.2,9.1-16.7c0,0,0,0,0,0c0,0,0,0,0,0
		c0.1-0.6,0.2-1.1,0.3-1.7c0,0,0-0.1,0-0.1c0.1-0.5,0.2-1.1,0.2-1.7c0-0.1,0-0.1,0-0.2c0.1-0.5,0.1-1,0.1-1.6c0-0.1,0-0.2,0-0.3
		c0-0.6,0.1-1.2,0.1-1.9s0-1.2-0.1-1.9C118.9,90.6,118.9,90.5,118.9,90.4z"/>
	<path fill="#407DF4" d="M69,66.7c1.7,0.7,3.8,1.3,6,1.8c1.4,0.3,2.8,0.5,4.3,0.7c0.4-0.6,0.7-1.4,0.7-2.2c1.6-0.3,3.3-0.5,5-0.5
		c1.7,0,3.4,0.2,5,0.5c0,0.8,0.3,1.6,0.7,2.2c2.2-0.2,4.3-0.6,6.2-1.1c3.3-0.9,6.1-2.1,7.8-3.3c-0.3-0.2-0.7-0.5-1-0.7
		c-0.1,0-0.1-0.1-0.2-0.1c-0.5-0.3-0.9-0.6-1.4-0.9c0,0-0.1,0-0.1-0.1c0,0-0.1,0-0.1-0.1c-0.5-0.3-1-0.6-1.5-0.8c0,0-0.1,0-0.1,0
		c-4.6-2.3-9.8-3.6-15.3-3.6c-7.3,0-14.1,2.3-19.7,6.3c0.1,0.1,0.2,0.2,0.4,0.2C66.6,65.6,67.7,66.1,69,66.7z"/>
	<path fill="#407DF4" d="M56.8,73.4C60,76,64.2,78,69,79.4c4.8,1.4,10.2,2.1,16,2.1c4.4,0,8.6-0.4,12.5-1.3
		c5.8-1.2,10.9-3.3,14.8-6.1c1.9-1.4,3.6-3.1,4.8-5c1.2-1.9,2-4.2,2-6.6c0-1.6-0.3-3.1-0.9-4.5c-1-2.5-2.8-4.6-4.9-6.3
		c-3.2-2.6-7.4-4.6-12.2-6c-4.8-1.4-10.2-2.1-16-2.1c-4.4,0-8.6,0.4-12.5,1.3C66.7,46,61.6,48,57.7,50.9c-1.9,1.4-3.6,3.1-4.8,5
		c-1.2,1.9-2,4.2-2,6.6c0,1.6,0.3,3.1,0.9,4.5C52.9,69.5,54.7,71.6,56.8,73.4z M59.3,61c0.4-0.9,1.2-2.1,2.6-3.2
		c2.1-1.7,5.3-3.3,9.3-4.5c4-1.2,8.7-1.8,13.8-1.8c3.9,0,7.5,0.4,10.8,1.1c5,1,9.1,2.8,11.6,4.7c1.3,1,2.2,1.9,2.8,2.8
		c0.5,0.9,0.7,1.6,0.7,2.3c0,0.5-0.1,1-0.3,1.5c-0.4,0.9-1.2,2.1-2.6,3.2c-2.1,1.7-5.3,3.3-9.3,4.5c-4,1.2-8.7,1.8-13.8,1.8
		c-3.9,0-7.5-0.4-10.8-1.1c-5-1-9.1-2.8-11.6-4.7c-1.3-1-2.2-1.9-2.8-2.8C59.2,64,59,63.2,59,62.5C59,62,59.1,61.5,59.3,61z"/>
	<path fill="#407DF4" d="M85,85.5c-3.9,0-7.7-0.3-11.3-1c-0.8,0.7-1.3,1.8-1.3,3v10c0,1.4,0.8,2.7,2,3.5l8.7,5c1.2,0.7,2.8,0.7,4,0
		l8.7-5c1.2-0.7,2-2,2-3.5v-10c0-1.2-0.5-2.2-1.4-3C92.7,85.1,88.9,85.5,85,85.5z"/>
</g>
<path fill="#407DF4" d="M160,85h8c0-11.4-2.3-22.4-6.5-32.3c-6.3-14.9-16.8-27.6-30.1-36.5C118.2,7.2,102.2,2,85,2
	C73.6,2,62.6,4.3,52.7,8.5c-14.9,6.3-27.6,16.8-36.5,30.1C7.2,51.8,2,67.8,2,85c0,11.4,2.3,22.4,6.5,32.3
	c6.3,14.9,16.8,27.6,30.1,36.5C51.8,162.8,67.8,168,85,168c11.4,0,22.4-2.3,32.3-6.5c14.9-6.3,27.6-16.8,36.5-30.1
	c8.9-13.2,14.2-29.2,14.2-46.4H160h-8c0,9.3-1.9,18.1-5.3,26.1c-5.1,12-13.6,22.3-24.3,29.5C111.8,147.8,98.9,152,85,152
	c-9.3,0-18.1-1.9-26.1-5.3c-12-5.1-22.3-13.6-29.5-24.3C22.2,111.8,18,98.9,18,85c0-9.3,1.9-18.1,5.3-26.1
	c5.1-12,13.6-22.3,24.3-29.5C58.2,22.2,71.1,18,85,18c9.3,0,18.1,1.9,26.1,5.3c12,5.1,22.3,13.6,29.5,24.3
	C147.8,58.2,152,71.1,152,85H160z"/>
</svg>
