<?xml version="1.0" encoding="utf-8"?>
<!-- Generator: Adobe Illustrator 18.0.0, SVG Export Plug-In . SVG Version: 6.00 Build 0)  -->
<!DOCTYPE svg PUBLIC "-//W3C//DTD SVG 1.1//EN" "http://www.w3.org/Graphics/SVG/1.1/DTD/svg11.dtd">
<svg version="1.1" id="Layer_1" xmlns="http://www.w3.org/2000/svg" x="0px" y="0px"
     viewBox="0 0 90 90" enable-background="new 0 0 90 90" xml:space="preserve">
<g>
	<polygon fill="#407DF4" points="54,39 49.5,31.2 40.5,31.2 36,39 40.5,46.8 49.5,46.8 	"/>
    <path fill="#407DF4" d="M48,25.2h3.3c1.1,0,2.1,0.6,2.6,1.5l5.4,9.3H67V18H48V25.2z"/>
    <path fill="#407DF4" d="M36.2,26.7c0.5-0.9,1.5-1.5,2.6-1.5H42V18H23v18h7.8L36.2,26.7z"/>
    <path fill="#407DF4"
          d="M53.8,51.3c-0.5,0.9-1.5,1.5-2.6,1.5H48v15.6l13.7-9.1c3.3-2.2,5.3-6,5.3-10V42h-7.8L53.8,51.3z"/>
    <path fill="#407DF4"
          d="M36.2,51.3L30.8,42H23v7.3c0,4,2,7.8,5.3,10L42,68.4V52.8h-3.3C37.7,52.8,36.7,52.3,36.2,51.3z"/>
    <path fill="#407DF4" d="M77.8,7.2C77.1,6.4,76.1,6,75,6H15c-1.1,0-2.1,0.4-2.8,1.2C11.4,7.9,11,8.9,11,10v39.3c0,8,4,15.5,10.7,20
		l21.1,14.1c1.3,0.9,3.1,0.9,4.4,0l21.1-14.1C75,64.8,79,57.3,79,49.3V10C79,8.9,78.6,7.9,77.8,7.2z M63.9,62.6L45,75.2L26.1,62.6
		c-4.5-3-7.1-8-7.1-13.3V14l52,0v35.3C71,54.6,68.3,59.6,63.9,62.6z"/>
</g>
</svg>
