<?xml version="1.0" encoding="utf-8"?>
<!-- Generator: Adobe Illustrator 18.0.0, SVG Export Plug-In . SVG Version: 6.00 Build 0)  -->
<!DOCTYPE svg PUBLIC "-//W3C//DTD SVG 1.1//EN" "http://www.w3.org/Graphics/SVG/1.1/DTD/svg11.dtd">
<svg version="1.1" id="Layer_1" xmlns="http://www.w3.org/2000/svg" x="0px" y="0px"
     viewBox="0 0 90 90" enable-background="new 0 0 90 90" xml:space="preserve">
<g>
	<path fill="#407DF4" d="M82.3,16.7c-0.7-0.7-1.8-1.2-2.8-1.2h-8v-3v0c0,0,0,0,0,0c0-0.3,0-0.5-0.1-0.8c-0.1-0.5-0.3-1-0.6-1.4
		c0,0,0,0,0,0c-0.1-0.2-0.3-0.4-0.5-0.6c0,0,0,0,0,0c0,0,0,0,0,0c-0.2-0.2-0.4-0.3-0.6-0.5c0,0,0,0,0,0c-0.4-0.3-0.9-0.5-1.4-0.6
		c-0.2,0-0.4-0.1-0.6-0.1c-0.1,0-0.1,0-0.1,0h-45c-0.1,0-0.1,0-0.2,0c-0.2,0-0.4,0-0.6,0.1c-0.5,0.1-1,0.3-1.4,0.6c0,0,0,0,0,0
		c-0.4,0.3-0.8,0.7-1.1,1.1c0,0,0,0,0,0c-0.3,0.4-0.5,0.9-0.6,1.4c0,0.1,0,0.3,0,0.4c0,0.1,0,0.3,0,0.4v3h-8c-1.1,0-2.1,0.4-2.8,1.2
		c-0.7,0.7-1.2,1.8-1.2,2.8v20c0,2.5,1,4.7,2.6,6.4c1.6,1.6,3.9,2.6,6.4,2.6h6.7c1.1,1.9,2.5,3.7,4.1,5.2c4.5,4.5,10.8,7.5,17.6,7.7
		c0.4,0,0.7,0,1.1,0c0.4,0,0.7,0,1.1,0c6.9-0.3,13.1-3.2,17.7-7.7c1.6-1.6,2.9-3.3,4.1-5.2h6.7c2.5,0,4.7-1,6.4-2.6
		c1.6-1.6,2.6-3.9,2.6-6.4v-20C83.5,18.4,83.1,17.4,82.3,16.7z M15.5,40.5c-0.3,0-0.5-0.1-0.7-0.3c-0.2-0.2-0.3-0.4-0.3-0.7v-16h4
		V35c0,0.3,0,0.6,0,0.9c0.1,1.6,0.2,3.1,0.6,4.6H15.5z M75.2,40.2c-0.2,0.2-0.4,0.3-0.7,0.3h-3.6c0.4-1.8,0.6-3.6,0.6-5.5
		c0,0,0,0,0,0v0V23.5h4v16C75.5,39.8,75.4,40,75.2,40.2z"/>
    <path fill="#407DF4" d="M64.3,75.7c-0.5-0.5-1.1-0.7-1.8-0.7c-1.9,0-3.8-0.5-5.5-1.6c-2.6-1.6-5-4.4-6.7-8
		c-0.1-0.1-0.1-0.2-0.1-0.3c-0.9,0.1-1.7,0.3-2.6,0.3c0,0,0,0,0,0c-0.8,0.1-1.7,0.1-2.5,0.1c-0.8,0-1.7,0-2.5-0.1c0,0,0,0,0,0
		c-0.9-0.1-1.7-0.2-2.6-0.3c-0.6,1.3-1.3,2.6-2.1,3.7c-1.4,2-3.1,3.6-4.8,4.7c-1.8,1.1-3.6,1.6-5.5,1.6c-0.7,0-1.3,0.3-1.8,0.7
		c-0.5,0.5-0.7,1.1-0.7,1.8c0,0.7,0.3,1.3,0.7,1.8s1.1,0.7,1.8,0.7h35c0.7,0,1.3-0.3,1.8-0.7s0.7-1.1,0.7-1.8
		C65,76.8,64.7,76.2,64.3,75.7z"/>
</g>
</svg>
