<?xml version="1.0" encoding="utf-8"?>
<!-- Generator: Adobe Illustrator 18.0.0, SVG Export Plug-In . SVG Version: 6.00 Build 0)  -->
<!DOCTYPE svg PUBLIC "-//W3C//DTD SVG 1.1//EN" "http://www.w3.org/Graphics/SVG/1.1/DTD/svg11.dtd">
<svg version="1.1" id="Layer_1" xmlns="http://www.w3.org/2000/svg" x="0px" y="0px"
     viewBox="0 0 160 160" enable-background="new 0 0 160 160" xml:space="preserve">
<path fill="#407DF4" d="M92.5,5h-25c-2.8,0-5,2.2-5,5v0c0,2.8,2.2,5,5,5h25c2.8,0,5-2.2,5-5v0C97.5,7.2,95.3,5,92.5,5z"/>
    <path fill="#407DF4" d="M134.2,49.9l2.2-2.2c1.9-1.9,1.9-4.9,0.2-6.9c-2.3-2.7-4.8-5.2-7.5-7.5c-2-1.7-5-1.7-6.9,0.2l-2.2,2.2
	c-1,1-2.6,1.2-3.8,0.4c-7.1-4.8-15.2-8.2-23.9-9.9C91,25.9,90,24.7,90,23.3V23c0-1.7-1.3-3-3-3H73c-1.7,0-3,1.3-3,3v0.3
	c0,1.4-1,2.7-2.4,2.9c-8.7,1.7-16.8,5.1-23.9,9.9c-1.2,0.8-2.8,0.6-3.8-0.4l-2.2-2.2c-1.9-1.9-4.9-1.9-6.9-0.2
	c-2.7,2.3-5.2,4.8-7.5,7.5c-1.7,2-1.7,5,0.2,6.9l2.2,2.2c1,1,1.2,2.6,0.4,3.8C18.9,64.4,14.7,77.4,15,91.3
	c0.7,35.6,30.4,64.2,66,63.7c35.4-0.5,64-29.5,64-65c0-13.4-4.1-25.9-11.1-36.3C133.1,52.5,133.2,50.9,134.2,49.9z M80,145
	c-30.4,0-55-24.6-55-55s24.6-55,55-55s55,24.6,55,55S110.4,145,80,145z"/>
    <path fill="#407DF4" d="M129.9,87.6c-0.1-1.5-0.8-2.9-2.1-3.8l-7.1-5.2c-1.1-0.8-1.5-2.1-1.1-3.4l2.7-8.3c0.5-1.4,0.3-3-0.6-4.3
	c-6.6-10.1-16.8-17.6-28.7-20.9c-1.5-0.4-3-0.1-4.3,0.8l-7.1,5.2c-1.1,0.8-2.5,0.8-3.5,0l-7.1-5.2c-1.2-0.9-2.8-1.2-4.3-0.8
	C54.9,45,44.8,52.5,38.2,62.6c-0.8,1.3-1,2.9-0.6,4.3l2.7,8.3c0.4,1.2,0,2.6-1.1,3.4l-7.1,5.2c-1.2,0.9-2,2.3-2.1,3.8
	c0,0.8-0.1,1.6-0.1,2.4c0,11.9,4.1,22.8,11,31.3c1,1.2,2.4,1.9,3.9,1.9h8.7c1.3,0,2.5,0.8,2.9,2.1l2.7,8.3c0.5,1.4,1.6,2.6,3,3.1
	c5.5,2.1,11.5,3.3,17.8,3.3c6.3,0,12.2-1.2,17.8-3.3c1.4-0.5,2.5-1.7,3-3.1l2.7-8.3c0.4-1.2,1.6-2.1,2.9-2.1h8.7
	c1.5,0,3-0.7,3.9-1.9c6.9-8.6,11-19.5,11-31.3C130,89.2,130,88.4,129.9,87.6z M99.3,85.6L93,105c-0.4,1.2-1.6,2.1-2.9,2.1H69.8
	c-1.3,0-2.5-0.8-2.9-2.1l-6.3-19.4c-0.4-1.2,0-2.6,1.1-3.4l16.5-12c1.1-0.8,2.5-0.8,3.5,0l16.5,12C99.3,83,99.7,84.4,99.3,85.6z
	 M106.9,55.7l-6.3,19.2c-0.4,1.1-1.7,1.6-2.7,0.9l-10-7.3C87,67.9,87,66.4,88,65.7l16.3-11.9C105.7,52.8,107.5,54.1,106.9,55.7z"/>
</svg>
